<svg width="170" height="49" viewBox="0 0 170 49" fill="none" xmlns="http://www.w3.org/2000/svg">
<g clip-path="url(#clip0)">
<path fill-rule="evenodd" clip-rule="evenodd" d="M164.501 0.0106041H5.49737C2.46287 0.0106041 0 2.47445 0 5.51565V43.5056C0 46.5446 2.46181 49.0106 5.49844 49.0106H164.502C167.538 49.0106 170 46.5446 170 43.5056V5.51565C170 2.47445 167.538 0.0106041 164.501 0.0106041Z" fill="black"/>
<path fill-rule="evenodd" clip-rule="evenodd" d="M32.6083 11.9113C34.6355 9.42185 34.2127 6.83656 34.2127 6.83656C34.2127 6.83656 31.3758 6.84935 29.3358 9.59974C27.5221 12.0433 27.9843 14.1344 27.9843 14.1344C27.9843 14.1344 30.444 14.569 32.6061 11.9102L32.6083 11.9113ZM36.5002 23.6606C36.5002 19.3997 39.8598 17.6453 39.8598 17.6453C39.8598 17.6453 38.1407 14.471 33.7781 14.471C31.2419 14.471 29.2943 15.9463 28.2446 15.9463C27.0227 15.9463 25.1984 14.5583 22.8471 14.5583C19.2282 14.5583 15.3713 17.8711 15.3713 24.1858C15.3713 30.6016 19.9273 38.5843 23.5356 38.5843C24.7936 38.5843 26.7273 37.2869 28.6738 37.2869C30.5863 37.2869 31.9952 38.5374 33.811 38.5374C37.7614 38.5374 40.6854 30.1222 40.6854 30.1222C40.6854 30.1222 36.5023 28.4658 36.5023 23.6606H36.5002Z" fill="white"/>
<path fill-rule="evenodd" clip-rule="evenodd" d="M56.155 8.298C56.7182 7.94648 57.4874 7.65355 58.5085 7.65355C60.1171 7.65355 61.1254 8.48016 61.1254 9.70942C61.1254 10.7299 60.4295 11.4479 59.4817 11.6801V11.7035C60.5506 11.8239 61.4155 12.5557 61.4155 13.6848C61.4155 15.4605 59.758 16.1188 58.2567 16.1188C57.463 16.1188 56.6236 15.9484 55.9617 15.5585L56.3123 14.4038C56.7075 14.6222 57.4885 14.9013 58.1961 14.9013C59.2533 14.9013 59.8536 14.39 59.8536 13.6124C59.8536 12.5663 58.8198 12.299 57.9305 12.299H57.2951V11.1805H57.9326C58.8676 11.1805 59.5901 10.6798 59.5901 9.93951C59.5901 9.27055 59.0727 8.86896 58.2567 8.86896C57.633 8.86896 56.971 9.12461 56.5163 9.36961L56.155 8.29694V8.298ZM66.4528 15.9835L66.3572 15.3263H66.321C65.9598 15.7875 65.3478 16.1167 64.5913 16.1167C63.414 16.1167 62.7532 15.2539 62.7532 14.3527C62.7532 12.8571 64.0643 12.103 66.2254 12.1157V12.0177C66.2254 11.6289 66.0692 10.9845 65.0354 10.9845C64.4595 10.9845 63.8592 11.1656 63.4629 11.4212L63.176 10.4487C63.6074 10.1792 64.3639 9.92459 65.2883 9.92459C67.1604 9.92459 67.7002 11.1283 67.7002 12.4172V14.5583C67.7002 15.0909 67.7257 15.616 67.7852 15.9804H66.4528V15.9825V15.9835ZM66.2615 13.0894C65.2171 13.0649 64.2215 13.296 64.2215 14.1972C64.2215 14.7788 64.5934 15.0472 65.0609 15.0472C65.6495 15.0472 66.0809 14.6584 66.2137 14.2323C66.2488 14.1237 66.2605 14.0022 66.2605 13.9053V13.0904L66.2615 13.0894ZM73.5928 10.0609V11.2401H71.2043V15.9825H69.7274V10.0599H73.5928V10.0609ZM74.9698 12.0305C74.9698 11.2529 74.9464 10.6202 74.923 10.062H76.2193L76.2915 10.9738H76.316C76.7484 10.3049 77.4316 9.92779 78.3209 9.92779C79.666 9.92779 80.7817 11.0963 80.7817 12.9445C80.7817 15.0856 79.4493 16.1188 78.1169 16.1188C77.3838 16.1188 76.7729 15.8025 76.4722 15.3274H76.4477V18.3909H74.973V12.0295L74.9698 12.0305ZM76.4467 13.5005C76.4467 13.6497 76.4594 13.7828 76.4955 13.916C76.639 14.5231 77.1681 14.9599 77.7918 14.9599C78.7289 14.9599 79.2814 14.1716 79.2814 13.0041C79.2814 11.9581 78.7767 11.108 77.829 11.108C77.218 11.108 76.6528 11.5554 76.5094 12.2137C76.4732 12.3341 76.4488 12.4694 76.4488 12.5908V13.5016L76.4467 13.5005ZM83.2148 10.0609L84.2709 13.2353C84.391 13.5996 84.511 14.0491 84.595 14.3889H84.63C84.7257 14.048 84.834 13.6113 84.9424 13.2214L85.854 10.0599H87.4393L85.973 14.097C85.1698 16.3106 84.629 17.2959 83.933 17.9041C83.3572 18.4261 82.7569 18.621 82.385 18.6711L82.0482 17.4035C82.301 17.3438 82.6134 17.2096 82.913 16.9912C83.1893 16.8102 83.5144 16.4565 83.7184 16.056C83.7779 15.9463 83.814 15.861 83.814 15.7875C83.814 15.7279 83.8034 15.6427 83.729 15.4967L81.5934 10.0609H83.2127H83.2148ZM89.3826 12.4566H90.0902C90.8977 12.4566 91.3652 12.1285 91.3652 11.7035C91.3652 11.2774 90.9689 10.9855 90.3091 10.9855C89.8161 10.9855 89.2753 11.156 88.8673 11.4116L88.5539 10.5232C89.1892 10.1217 89.9829 9.93951 90.7394 9.93951C91.7244 9.93951 92.925 10.3283 92.925 11.5075C92.925 12.2745 92.2514 12.7005 91.6394 12.8465V12.872C92.4192 12.9573 93.1885 13.4313 93.1885 14.3058C93.1885 15.68 91.6627 16.106 90.4621 16.106C89.6929 16.106 88.9257 15.9122 88.3477 15.5713L88.6856 14.6233C89.0936 14.8416 89.7184 15.0238 90.3059 15.0238C91.1219 15.0238 91.566 14.6829 91.566 14.2206C91.566 13.6007 90.9307 13.4057 90.103 13.4057H89.3826V12.4577V12.4566ZM96.2591 10.0609V12.1892C96.2591 13.1245 96.223 13.7583 96.1741 14.5839H96.2092C96.5215 13.8915 96.7022 13.4547 97.0018 12.8337L98.4425 10.062H100.233V15.9846H98.8272V13.868C98.8272 12.92 98.8633 12.4832 98.9228 11.3648H98.875C98.5881 12.0678 98.3947 12.4939 98.1057 13.0659C97.6489 13.9426 97.1219 15.011 96.6182 15.9846H94.8524V10.062H96.258L96.2591 10.0609ZM106.569 10.0609V11.2167H104.815V15.9835H103.336V11.2167H101.583V10.0609H106.566H106.569ZM108.81 13.443C108.845 14.5114 109.674 14.9748 110.609 14.9748C111.295 14.9748 111.786 14.8768 112.232 14.7064L112.446 15.7396C111.942 15.9463 111.246 16.1039 110.406 16.1039C108.509 16.1039 107.392 14.9258 107.392 13.1128C107.392 11.4724 108.377 9.92779 110.25 9.92779C112.147 9.92779 112.77 11.5064 112.77 12.8081C112.77 13.0883 112.747 13.3088 112.724 13.4409H108.809L108.81 13.443ZM111.378 12.3959C111.389 11.8484 111.15 10.9472 110.165 10.9472C109.253 10.9472 108.869 11.7887 108.809 12.3959H111.377H111.378ZM117.388 10.1334C117.82 10.0609 118.708 9.98744 119.513 9.98744C120.498 9.98744 122.275 10.1217 122.275 11.483C122.275 12.2372 121.699 12.6633 121.075 12.7975V12.822C121.939 12.9551 122.538 13.4398 122.538 14.2685C122.538 15.8983 120.427 16.056 119.249 16.056C118.516 16.056 117.735 16.008 117.388 15.9708V10.1334ZM118.816 15.0834C119.056 15.109 119.236 15.1197 119.535 15.1197C120.208 15.1197 121.025 14.9386 121.025 14.244C121.025 13.5751 120.377 13.3567 119.452 13.3567H118.815V15.0824L118.816 15.0834ZM118.829 12.4566H119.44C120.196 12.4566 120.821 12.2382 120.821 11.679C120.821 11.205 120.412 10.9483 119.535 10.9483C119.248 10.9483 119.057 10.9728 118.828 10.9962V12.4555L118.829 12.4566Z" fill="white"/>
<path fill-rule="evenodd" clip-rule="evenodd" d="M65.2692 36.9896H62.512L61.0012 32.1354H55.7492L54.3095 36.9896H51.6235L56.8266 20.4628H60.0417L65.2692 36.9896ZM60.5453 30.0977L59.179 25.7835C59.0355 25.3425 58.7646 24.305 58.364 22.6699H58.3162C58.1568 23.373 57.9018 24.4115 57.5491 25.7835L56.2061 30.0977H60.5453ZM78.6525 30.8849C78.6525 32.912 78.117 34.513 77.046 35.689C76.0855 36.7361 74.8955 37.2591 73.4717 37.2591C71.9364 37.2591 70.8346 36.6946 70.1631 35.5676H70.1142V41.8449H67.5238V28.9952C67.5238 27.7212 67.492 26.4141 67.4282 25.073H69.7052L69.8497 26.9617H69.8996C70.7634 25.5396 72.0735 24.8291 73.833 24.8291C75.2068 24.8291 76.3543 25.383 77.2723 26.4951C78.1935 27.6093 78.6535 29.0729 78.6535 30.8859L78.6525 30.8849ZM76.0143 30.9807C76.0143 29.8218 75.7593 28.8663 75.2472 28.1132C74.6883 27.3281 73.936 26.9361 72.9947 26.9361C72.354 26.9361 71.7728 27.1545 71.2554 27.5859C70.7347 28.0205 70.3947 28.5872 70.2353 29.2902C70.1567 29.6204 70.1163 29.8868 70.1163 30.0998V32.0854C70.1163 32.9535 70.3777 33.6853 70.8973 34.2818C71.4179 34.8784 72.0926 35.1766 72.9235 35.1766C73.8989 35.1766 74.6575 34.7931 75.2015 34.0262C75.7433 33.256 76.0164 32.2419 76.0164 30.9829L76.0143 30.9807ZM92.058 30.8849C92.058 32.912 91.5225 34.513 90.4505 35.689C89.4921 36.7361 88.3 37.2591 86.8783 37.2591C85.343 37.2591 84.2402 36.6946 83.5697 35.5676H83.5209V41.8449H80.9305V28.9952C80.9305 27.7212 80.8986 26.4141 80.8349 25.073H83.1118L83.2563 26.9617H83.3041C84.1668 25.5396 85.4769 24.8291 87.2375 24.8291C88.6113 24.8291 89.7588 25.383 90.68 26.4951C91.5969 27.6093 92.057 29.0729 92.057 30.8859L92.058 30.8849ZM89.4209 30.9807C89.4209 29.8218 89.1659 28.8663 88.6527 28.1132C88.0928 27.3281 87.3437 26.9361 86.4002 26.9361C85.7595 26.9361 85.1805 27.1545 84.6599 27.5859C84.1392 28.0205 83.7992 28.5872 83.6399 29.2902C83.5623 29.6204 83.5209 29.8868 83.5209 30.0998V32.0854C83.5209 32.9535 83.7801 33.6853 84.2965 34.2818C84.8171 34.8784 85.4929 35.1766 86.3259 35.1766C87.3034 35.1766 88.0609 34.7931 88.6038 34.0262C89.1479 33.256 89.422 32.2419 89.422 30.9829L89.4209 30.9807ZM107.047 32.3559C107.047 33.762 106.569 34.905 105.612 35.7881C104.558 36.7531 103.092 37.2368 101.208 37.2368C99.4679 37.2368 98.0739 36.8927 97.0188 36.2056L97.6192 33.9985C98.756 34.7015 100.003 35.0531 101.362 35.0531C102.338 35.0531 103.096 34.8272 103.642 34.3777C104.184 33.9282 104.456 33.3231 104.456 32.5722C104.456 31.9011 104.233 31.3365 103.785 30.8785C103.339 30.4204 102.595 29.9943 101.554 29.6002C98.7242 28.5201 97.311 26.9393 97.311 24.86C97.311 23.5018 97.8062 22.3866 98.7985 21.5205C99.7867 20.6524 101.106 20.2188 102.755 20.2188C104.228 20.2188 105.45 20.4809 106.424 21.0039L105.776 23.162C104.866 22.6561 103.836 22.4015 102.684 22.4015C101.772 22.4015 101.062 22.6316 100.551 23.0885C100.119 23.4976 99.9025 23.994 99.9025 24.5852C99.9025 25.2381 100.149 25.7782 100.644 26.2043C101.077 26.5952 101.86 27.0203 102.996 27.4783C104.386 28.0503 105.408 28.7203 106.065 29.4873C106.722 30.2543 107.048 31.2108 107.048 32.3527L107.047 32.3559ZM115.61 27.0597H112.756V32.8459C112.756 34.3181 113.258 35.0531 114.264 35.0531C114.729 35.0531 115.112 35.0104 115.416 34.9295L115.488 36.9406C114.978 37.1356 114.307 37.2336 113.474 37.2336C112.451 37.2336 111.651 36.914 111.075 36.2781C110.501 35.6389 110.211 34.5694 110.211 33.0654V27.0565H108.509V25.0709H110.209V22.8872L112.753 22.1032V25.0709H115.608V27.0597H115.61ZM128.488 30.9339C128.488 32.766 127.976 34.268 126.953 35.4451C125.88 36.6562 124.456 37.2602 122.681 37.2602C120.973 37.2602 119.611 36.6786 118.595 35.5186C117.578 34.3575 117.07 32.8949 117.07 31.1299C117.07 29.2838 117.593 27.7712 118.641 26.5952C119.687 25.4182 121.099 24.8302 122.873 24.8302C124.583 24.8302 125.959 25.4107 126.998 26.5718C127.991 27.6977 128.486 29.1518 128.486 30.9339H128.488ZM125.802 31.0191C125.802 29.9219 125.572 28.9781 125.107 28.1909C124.565 27.2397 123.787 26.7657 122.782 26.7657C121.741 26.7657 120.951 27.2418 120.408 28.1909C119.942 28.9792 119.713 29.9358 119.713 31.067C119.713 32.1663 119.944 33.109 120.409 33.8941C120.969 34.8443 121.752 35.3183 122.76 35.3183C123.748 35.3183 124.524 34.8347 125.085 33.8675C125.563 33.0686 125.803 32.1152 125.803 31.018L125.802 31.0191ZM136.906 27.4016C136.651 27.3537 136.377 27.327 136.09 27.327C135.18 27.327 134.475 27.6786 133.979 28.3837C133.548 29.0037 133.331 29.7898 133.331 30.7379V36.9886H130.743L130.767 28.8247C130.767 27.4506 130.735 26.2 130.669 25.073H132.925L133.021 27.3526H133.092C133.366 26.5686 133.797 25.9391 134.388 25.465C134.962 25.0389 135.587 24.8259 136.258 24.8259C136.498 24.8259 136.715 24.844 136.906 24.8749V27.4016ZM148.487 30.4684C148.487 30.9424 148.456 31.3418 148.392 31.6689H140.623C140.655 32.8459 141.03 33.746 141.751 34.3681C142.407 34.922 143.252 35.2011 144.291 35.2011C145.442 35.2011 146.492 35.0126 147.436 34.6366L147.839 36.4751C146.737 36.9673 145.436 37.2122 143.934 37.2122C142.127 37.2122 140.708 36.669 139.675 35.5825C138.644 34.4959 138.129 33.0366 138.129 31.2044C138.129 29.4085 138.607 27.9108 139.569 26.7177C140.575 25.4437 141.934 24.8067 143.645 24.8067C145.323 24.8067 146.596 25.4437 147.459 26.7177C148.145 27.7297 148.49 28.9813 148.49 30.4673L148.487 30.4684ZM146.018 29.7813C146.033 28.9962 145.865 28.3188 145.515 27.7467C145.066 27.0085 144.378 26.6421 143.45 26.6421C142.604 26.6421 141.915 27.0011 141.389 27.7212C140.957 28.2943 140.701 28.9803 140.622 29.7802H146.017V29.7824L146.018 29.7813Z" fill="white"/>
</g>
<defs>
<clipPath id="clip0">
<rect width="170" height="49" fill="white"/>
</clipPath>
</defs>
</svg>
