<svg width="170" height="49" viewBox="0 0 170 49" fill="none" xmlns="http://www.w3.org/2000/svg">
<path fill-rule="evenodd" clip-rule="evenodd" d="M164.501 0H5.49737C2.46287 0 0 2.46491 0 5.50504V43.495C0 46.534 2.46181 49 5.49844 49H164.502C167.538 49 170 46.534 170 43.495V5.50504C170 2.46491 167.539 0 164.501 0Z" fill="black"/>
<path fill-rule="evenodd" clip-rule="evenodd" d="M36.1758 33.1645L41.5553 30.1606C43.0534 29.3254 43.0534 27.9588 41.5574 27.1194L36.1238 24.0782L31.6294 28.7172L36.1769 33.1634L36.1758 33.1645Z" fill="url(#paint0_linear)"/>
<path fill-rule="evenodd" clip-rule="evenodd" d="M31.6305 28.7183C31.6305 28.7183 20.8068 39.7646 17.5481 43.0348C17.8116 43.088 18.108 43.0689 18.4247 42.9783L22.374 40.8671L36.0855 33.2124L36.1727 33.1634L31.6273 28.7172L31.6305 28.7183Z" fill="url(#paint1_linear)"/>
<path fill-rule="evenodd" clip-rule="evenodd" d="M17.4015 14.2697C16.7534 14.4827 16.3252 15.1431 16.3252 16.1572V41.094C16.3252 42.173 16.8267 42.8686 17.5492 43.0327L31.6305 28.7183L17.4004 14.2697H17.4015Z" fill="url(#paint2_linear)"/>
<path fill-rule="evenodd" clip-rule="evenodd" d="M19.0486 14.5295C18.477 14.21 17.95 14.1248 17.5101 14.227C17.4708 14.2377 17.4389 14.259 17.4017 14.2696L31.6286 28.7193L36.1251 24.0792L19.0486 14.5295Z" fill="url(#paint3_linear)"/>
<path fill-rule="evenodd" clip-rule="evenodd" d="M98.7541 33.3498C99.2449 32.8492 99.2853 32.1504 99.2853 31.7584C99.2853 30.1883 98.3694 27.7468 96.6004 27.7468C96.0458 27.7468 95.4497 28.0323 95.1076 28.4679C94.7463 28.9238 94.6379 29.5118 94.6379 30.0796C94.6379 31.539 95.472 33.9602 97.3048 33.9602C97.8393 33.9623 98.413 33.7003 98.7551 33.3509L98.7541 33.3498ZM132.303 22.7722L133.42 22.7882C133.388 27.6136 133.376 32.4391 133.399 37.2645C133.035 37.2688 132.67 37.273 132.305 37.2752C132.297 32.4412 132.3 27.6083 132.303 22.7733V22.7722ZM124.801 26.7455C126.406 26.183 128.318 26.6496 129.452 27.9492C130.417 29.0506 130.783 30.5717 130.766 32.0226C130.777 33.5458 130.368 35.1692 129.274 36.2664C128.11 37.4935 126.209 37.845 124.661 37.2549C123.809 36.9375 123.099 36.3143 122.55 35.59C122.582 37.4893 122.571 39.3864 122.557 41.2846C122.185 41.2772 121.817 41.2687 121.448 41.2633C121.469 36.4315 121.437 31.6018 121.462 26.7721L122.56 26.7892C122.571 27.326 122.571 27.8608 122.554 28.3976C123.142 27.6541 123.901 27.0341 124.803 26.7465L124.801 26.7455ZM125.177 27.6349C124.132 27.9396 123.201 28.6735 122.617 29.6056C122.491 30.8668 122.606 32.1536 122.56 33.4255C122.588 33.8196 122.468 34.2883 122.745 34.6185C123.287 35.3567 124.02 35.9575 124.857 36.3058C126.052 36.7979 127.505 36.4656 128.39 35.5175C129.313 34.5535 129.612 33.1421 129.584 31.8351C129.552 30.5632 129.182 29.1997 128.2 28.3497C127.403 27.5977 126.213 27.359 125.178 27.6339L125.177 27.6349ZM138.05 26.7082C139.441 26.3652 141.017 26.4185 142.263 27.2003C143.119 27.7223 143.634 28.7236 143.634 29.7323C143.655 31.6135 143.626 33.4947 143.645 35.3759C143.647 36.0043 143.774 36.6254 143.914 37.2368C143.489 37.24 143.068 37.24 142.645 37.2347C142.541 36.6701 142.457 36.0992 142.422 35.5271C141.569 36.5987 140.299 37.3763 138.926 37.4296C137.906 37.4829 136.769 37.3465 135.997 36.5934C135.232 35.8691 134.998 34.6973 135.229 33.6854C135.51 32.6564 136.431 31.981 137.371 31.6359C138.992 31.0181 140.746 31.3163 142.433 31.2311C142.407 30.2788 142.614 29.1731 141.934 28.3955C141.143 27.4794 139.814 27.391 138.708 27.5689C137.712 27.7116 136.772 28.4669 136.675 29.5395C136.303 29.5395 135.931 29.5427 135.559 29.5481C135.482 28.0834 136.792 27.0555 138.045 26.7071L138.05 26.7082ZM136.687 33.4244C136.126 34.1647 136.296 35.3311 137.015 35.9042C137.758 36.5391 138.804 36.4613 139.703 36.3303C140.846 36.0565 142.019 35.3269 142.419 34.1381C142.472 33.4649 142.419 32.7895 142.432 32.1142C141.43 32.1174 140.43 32.0907 139.431 32.1248C138.404 32.1728 137.329 32.569 136.687 33.4244ZM144.847 26.7625C145.253 26.7732 145.658 26.7796 146.064 26.786C147.294 29.8431 148.572 32.8822 149.801 35.9383C151.118 32.9131 152.279 29.8176 153.562 26.7753C153.969 26.7806 154.377 26.7817 154.787 26.7838C153.103 30.8988 151.355 34.986 149.663 39.0977C149.346 39.8828 148.975 40.7243 148.221 41.1664C147.475 41.6489 146.551 41.5328 145.721 41.4178C145.785 41.0695 145.848 40.7254 145.914 40.3792C146.588 40.5837 147.455 40.6647 147.937 40.0213C148.518 39.2202 148.798 38.2392 149.212 37.3433C147.742 33.8217 146.266 30.3044 144.845 26.7636L144.847 26.7625ZM98.1346 37.4914C97.9646 37.4701 97.8584 37.4701 97.6459 37.4701C97.4525 37.4701 96.3008 37.5148 95.404 37.8216C94.9365 37.9942 93.5723 38.514 93.5723 40.065C93.5723 41.6138 95.0417 42.7237 97.325 42.7237C99.3703 42.7237 100.457 41.7224 100.457 40.3696C100.457 39.2565 99.756 38.6685 98.1336 37.4914H98.1346ZM99.6498 27.8128C100.139 28.2283 101.161 29.0985 101.161 30.755C101.161 32.3677 100.265 33.1325 99.3693 33.8515C99.093 34.1328 98.7743 34.4395 98.7743 34.9189C98.7743 35.3982 99.093 35.6592 99.3268 35.8563L100.096 36.4635C101.033 37.273 101.885 38.0144 101.885 39.5185C101.885 41.5669 99.9462 43.6377 96.2784 43.6377C93.1866 43.6377 91.6948 42.1336 91.6948 40.5219C91.6948 39.7358 92.0773 38.6237 93.3364 37.8621C94.6571 37.0312 96.4495 36.9247 97.4079 36.8576C97.1104 36.4635 96.7682 36.0512 96.7682 35.3769C96.7682 35.0062 96.8745 34.7879 96.9808 34.5248C96.747 34.5482 96.5133 34.5695 96.3008 34.5695C94.0398 34.5695 92.7605 32.847 92.7605 31.147C92.7605 30.1457 93.2089 29.0325 94.1248 28.2283C95.3403 27.2035 96.7895 27.0299 97.9423 27.0299H102.334L100.967 27.8139H99.6498V27.8128ZM88.8866 35.3812C89.3966 34.6824 89.5263 33.8153 89.5263 32.9653C89.5263 31.0479 88.6306 27.3921 85.9924 27.3921C85.289 27.3921 84.5867 27.6754 84.0756 28.1335C83.2448 28.8951 83.096 29.8527 83.096 30.789C83.096 32.944 84.1373 36.4922 86.7149 36.4922C87.5436 36.4922 88.3968 36.0768 88.8856 35.3823L88.8866 35.3812ZM86.2261 37.1441C82.841 37.1441 81.0326 34.4438 81.0326 32.0055C81.0326 29.155 83.3096 26.7178 86.547 26.7178C89.6739 26.7178 91.6332 29.221 91.6332 31.8553C91.6332 34.4225 89.6963 37.1441 86.2251 37.1441H86.2261ZM77.35 35.3812C77.8621 34.6824 77.9896 33.8153 77.9896 32.9653C77.9896 31.0479 77.0971 27.3921 74.4568 27.3921C73.7556 27.3921 73.0501 27.6754 72.539 28.1335C71.7081 28.8951 71.5615 29.8527 71.5615 30.789C71.5615 32.944 72.6028 36.4922 75.1804 36.4922C76.0091 36.4922 76.8623 36.0768 77.35 35.3823V35.3812ZM74.6906 37.1441C71.3044 37.1441 69.4949 34.4438 69.4949 32.0055C69.4949 29.155 71.774 26.7178 75.0093 26.7178C78.1394 26.7178 80.0966 29.221 80.0966 31.8553C80.0966 34.4225 78.1607 37.1441 74.6906 37.1441ZM67.8693 36.8033L64.8093 37.5255C63.5662 37.7215 62.4548 37.8962 61.2776 37.8962C55.3701 37.8962 53.125 33.4563 53.125 29.9742C53.125 25.7303 56.3125 21.7912 61.7706 21.7912C62.9287 21.7912 64.039 21.9658 65.0431 22.2492C66.6506 22.7094 67.3986 23.2782 67.8693 23.6073L66.0918 25.3351L65.3438 25.5109L65.8793 24.6342C65.1514 23.9131 63.8244 22.5783 61.2999 22.5783C57.9169 22.5783 55.3711 25.2052 55.3711 29.0336C55.3711 33.1453 58.2802 37.0195 62.9468 37.0195C64.3174 37.0195 65.0218 36.7362 65.6668 36.473V32.9514L62.4346 33.1251L64.1453 32.1845H68.6821L68.1264 32.7309C67.9745 32.862 67.9564 32.9078 67.9108 33.0825C67.8895 33.2795 67.8683 33.9133 67.8683 34.1317V36.8033H67.8693ZM106.415 36.1705C105.708 36.1066 105.559 35.9745 105.559 35.1213V22.7371L105.57 22.5965C105.655 21.8295 105.87 21.7017 106.533 21.3054H103.473L101.868 22.0937H103.505V22.1043L103.502 22.0969V35.6038C103.502 36.0406 103.417 36.1066 102.924 36.7617H106.713L107.505 36.2824C107.144 36.2376 106.779 36.2163 106.416 36.1716L106.415 36.1705ZM113.125 29.8964C113.529 29.7441 113.742 29.6152 113.742 29.3105C113.742 28.4424 112.785 27.44 111.638 27.44C110.788 27.44 109.194 28.1153 109.194 30.462C109.194 30.8317 109.237 31.2226 109.258 31.6125L113.125 29.8953V29.8964ZM115.123 36.3729C114.891 36.5039 114.658 36.6563 114.424 36.7649C113.723 37.0898 112.998 37.1761 112.363 37.1761C111.683 37.1761 110.62 37.1335 109.536 36.3292C108.028 35.2427 107.369 33.3743 107.369 31.7445C107.369 28.3785 110.046 26.7252 112.235 26.7252C113 26.7252 113.786 26.9223 114.424 27.3345C115.486 28.0504 115.763 28.9856 115.911 29.4863L110.918 31.5507L109.279 31.6785C109.81 34.4406 111.638 36.0459 113.659 36.0459C114.743 36.0459 115.529 35.6571 116.251 35.2875L115.125 36.374L115.123 36.3729Z" fill="white"/>
<path fill-rule="evenodd" clip-rule="evenodd" d="M54.1577 8.23623C54.638 7.91667 55.2446 7.69297 56.0171 7.69297C57.2411 7.69297 58.0868 8.34275 58.0868 9.45484C58.0868 10.3411 57.4493 11.025 56.6344 11.2178V11.2412C57.6161 11.3477 58.3482 12.0082 58.3588 13.0468C58.3588 14.5423 57.0838 15.141 55.7982 15.141C55.1607 15.141 54.502 15.0025 53.9601 14.6723L54.1991 13.9447C54.588 14.1684 55.2043 14.3815 55.7886 14.3815C56.8235 14.3815 57.3983 13.8063 57.3983 13.0148C57.3983 11.9347 56.3858 11.6258 55.4858 11.6258H55.0693V10.9195H55.4763C56.4081 10.9195 57.1391 10.3336 57.1391 9.59545C57.1391 8.85832 56.627 8.45247 55.8747 8.45247C55.3307 8.45247 54.7878 8.67617 54.401 8.92117L54.1609 8.2373L54.1577 8.23623ZM60.9694 12.757L60.2363 15.0217H59.297L61.6983 7.8208H62.7863L65.1907 15.0217H64.2185L63.4663 12.757H60.9694ZM63.2888 12.0305L62.5876 9.95762C62.4314 9.48893 62.3273 9.06071 62.2231 8.64421H62.2019C62.0956 9.05964 61.9926 9.50917 61.847 9.94697L61.1564 12.0305H63.2878H63.2888ZM70.2259 7.81867V8.59947H67.3943V15.0195H66.4731V7.81867H70.2259ZM71.2693 7.90601C71.7081 7.83145 72.2818 7.76754 73.0139 7.76754C73.9117 7.76754 74.5694 7.98058 74.988 8.36619C75.3641 8.70706 75.6043 9.23114 75.6043 9.8724C75.6043 10.5243 75.4162 11.0378 75.0603 11.4116C74.5694 11.9336 73.7959 12.202 72.9076 12.202C72.6356 12.202 72.3849 12.1914 72.1745 12.1381V15.0227H71.2671V7.90708L71.2693 7.90601ZM72.1777 11.3786C72.3764 11.4319 72.6271 11.4532 72.93 11.4532C74.0275 11.4532 74.6969 10.8971 74.6969 9.9246C74.6969 8.96271 74.0275 8.5036 73.0351 8.5036C72.6367 8.5036 72.3339 8.53556 72.1777 8.57817V11.3797V11.3786ZM77.2225 7.81867L78.6228 10.9078C78.8003 11.3339 78.9681 11.7514 79.1243 12.169H79.1562C79.2805 11.8068 79.4165 11.3893 79.5844 10.8758L80.6926 7.8208H81.6541L80.172 11.5384C79.7958 12.5003 79.356 13.6017 78.8545 14.2632C78.405 14.8512 77.8929 15.1506 77.266 15.1506C77.0259 15.1506 76.8686 15.1293 76.7539 15.0866L76.8389 14.3282C76.9207 14.3495 77.0259 14.3602 77.1821 14.3602C77.9046 14.3602 78.3328 13.6443 78.5633 13.132C78.6356 12.9722 78.6165 12.8657 78.5315 12.6931L76.1886 7.81867H77.2225ZM82.5084 8.23623C82.9886 7.91667 83.5943 7.69297 84.3678 7.69297C85.5918 7.69297 86.4364 8.34275 86.4364 9.45484C86.4364 10.3411 85.799 11.025 84.984 11.2178V11.2412C85.9668 11.3477 86.6978 12.0082 86.7095 13.0468C86.7095 14.5423 85.4345 15.141 84.1489 15.141C83.5114 15.141 82.8526 15.0025 82.3086 14.6723L82.5488 13.9447C82.9355 14.1684 83.5518 14.3815 84.1372 14.3815C85.171 14.3815 85.7448 13.8063 85.7448 13.0148C85.7448 11.9347 84.7322 11.6258 83.8323 11.6258H83.4147V10.9195H83.8227C84.7535 10.9195 85.4834 10.3336 85.4834 9.59545C85.4834 8.85832 84.9734 8.45247 84.219 8.45247C83.6771 8.45247 83.1321 8.67617 82.7464 8.92117L82.5073 8.2373L82.5084 8.23623ZM89.0375 7.81867V10.8545C89.0375 11.9869 89.0162 12.9381 88.9546 13.8989L88.9865 13.9096C89.3307 13.1607 89.7695 12.3821 90.2806 11.5267L92.5596 7.81973H93.4681V15.0206H92.6117V11.956C92.6117 10.7906 92.6223 9.93632 92.6967 9.02875L92.6648 9.0181C92.3195 9.80636 91.8382 10.6415 91.358 11.4329L89.1533 15.0227H88.18V7.81867H89.0364H89.0375ZM96.6524 8.61119H94.5093V7.81867H99.7241V8.61119H97.5714V15.0195H96.6524V8.61225V8.61119ZM104.404 11.646H101.678V14.2419H104.73V15.0217H100.756V7.8208H104.57V8.60054H101.677V10.8758H104.403V11.646H104.404ZM110.032 7.81867V10.8332H113.44V7.81867H114.359V15.0195H113.44V11.6449H110.034V15.0217H109.114V7.81867H110.035H110.032ZM117.335 12.757L116.602 15.0217H115.663L118.066 7.8208H119.152L121.556 15.0217H120.584L119.832 12.757H117.335ZM119.656 12.0305L118.954 9.95762C118.798 9.48893 118.693 9.06071 118.589 8.64421H118.568C118.463 9.05964 118.359 9.50917 118.213 9.94697L117.522 12.0305H119.654H119.656Z" fill="white"/>
<defs>
<linearGradient id="paint0_linear" x1="33.4029" y1="29.5965" x2="43.2163" y2="24.4422" gradientUnits="userSpaceOnUse">
<stop stop-color="#FFA28B"/>
<stop offset="1" stop-color="#FFC473"/>
</linearGradient>
<linearGradient id="paint1_linear" x1="17.856" y1="38.3941" x2="34.2681" y2="28.5722" gradientUnits="userSpaceOnUse">
<stop stop-color="#7D17FF"/>
<stop offset="1" stop-color="#FF2E64"/>
</linearGradient>
<linearGradient id="paint2_linear" x1="15.6859" y1="7.23882" x2="42.3859" y2="32.6635" gradientUnits="userSpaceOnUse">
<stop stop-color="#0053B9"/>
<stop offset="1" stop-color="#2EFFBC"/>
</linearGradient>
<linearGradient id="paint3_linear" x1="16.9627" y1="13.7106" x2="30.5419" y2="30.618" gradientUnits="userSpaceOnUse">
<stop stop-color="#00D4AB"/>
<stop offset="1" stop-color="#C8FFA2"/>
</linearGradient>
</defs>
</svg>
