<svg width="82" height="63" viewBox="0 0 82 63" fill="none" xmlns="http://www.w3.org/2000/svg">
<g clip-path="url(#clip0)">
<path d="M70.5937 46.7773C83.5368 31.566 85.799 12.3955 75.6465 3.95878C65.494 -4.47795 46.7712 1.01389 33.8281 16.2252C20.8849 31.4364 18.6227 50.6069 28.7753 59.0436C38.9278 67.4804 57.6505 61.9885 70.5937 46.7773Z" fill="#FFD3CA"/>
<path d="M53.224 59.05C63.3765 50.6133 61.1143 31.4428 48.1711 16.2315C35.228 1.02026 16.5052 -4.47157 6.35271 3.96516C-3.79983 12.4019 -1.53761 31.5724 11.4055 46.7836C24.3487 61.9949 43.0714 67.4867 53.224 59.05Z" fill="#FFD3CA"/>
<path d="M34.3395 43.8643H27.9789V30.0571H34.3395" stroke="#004B46" stroke-width="3" stroke-miterlimit="10"/>
<path d="M40.6928 18.2285L34.3395 30.0571V43.8714H49.2794C50.1407 43.8723 50.9759 43.5792 51.6436 43.0417C52.3114 42.5041 52.7707 41.7551 52.944 40.9214L55.2786 29.7571C55.3271 29.4858 55.315 29.2073 55.2429 28.9412C55.1709 28.6751 55.0407 28.4278 54.8616 28.2167C54.6825 28.0057 54.4587 27.8359 54.2061 27.7195C53.9535 27.6031 53.6781 27.5428 53.3993 27.5428H44.5091V21.9999C44.51 21.5044 44.412 21.0136 44.2205 20.5556C44.0291 20.0976 43.748 19.6814 43.3934 19.331C43.0389 18.9807 42.6178 18.7029 42.1543 18.5137C41.6909 18.3245 41.1942 18.2276 40.6928 18.2285V18.2285Z" stroke="#004B46" stroke-width="3" stroke-miterlimit="10"/>
</g>
<defs>
<clipPath id="clip0">
<rect width="82" height="63" fill="white"/>
</clipPath>
</defs>
</svg>
