<svg width="90" height="24" viewBox="0 0 90 24" fill="none" xmlns="http://www.w3.org/2000/svg">
<g clip-path="url(#clip0)">
<rect width="90" height="24" rx="12" fill="#00A653"/>
<mask id="mask0" mask-type="alpha" maskUnits="userSpaceOnUse" x="0" y="0" width="93" height="24">
<rect width="93" height="24" fill="white"/>
</mask>
<g mask="url(#mask0)">
<path fill-rule="evenodd" clip-rule="evenodd" d="M14.5061 11.4062H20.2843C20.2843 11.4062 20.9838 11.3003 21.0035 10.9553C21.0226 10.6572 20.7829 10.2345 20.7829 10.2345L17.9462 5.3265C17.9462 5.3265 17.803 5 17.3813 5C16.978 5 16.8632 5.29718 16.8632 5.29718L13.9885 10.2152C13.9885 10.2152 13.7015 10.6855 13.7876 10.9646C13.9117 11.3773 14.5061 11.4062 14.5061 11.4062Z" fill="#EC008C"/>
<path fill-rule="evenodd" clip-rule="evenodd" d="M10.7348 17.8017H16.5137C16.5137 17.8017 17.2131 17.7053 17.2329 17.3502C17.2513 17.0523 17.0122 16.6298 17.0122 16.6298L14.1756 11.7213C14.1756 11.7213 14.0311 11.3951 13.6094 11.3951C13.2075 11.3951 13.0926 11.7025 13.0926 11.7025L10.2173 16.6106C10.2173 16.6106 9.92954 17.0813 10.0163 17.3597C10.141 17.7728 10.7348 17.8017 10.7348 17.8017Z" fill="#F68B1E"/>
<path fill-rule="evenodd" clip-rule="evenodd" d="M18.2532 17.8017H24.0321C24.0321 17.8017 24.731 17.7053 24.7506 17.3502C24.7696 17.0523 24.5299 16.6298 24.5299 16.6298L21.6933 11.7213C21.6933 11.7213 21.5495 11.3951 21.1285 11.3951C20.7259 11.3951 20.6011 11.7025 20.6011 11.7025L17.7356 16.6106C17.7356 16.6106 17.4486 17.0813 17.5347 17.3597C17.6589 17.7728 18.2532 17.8017 18.2532 17.8017Z" fill="#FDB813"/>
<path fill-rule="evenodd" clip-rule="evenodd" d="M48.411 16.0265C49.4848 17.2155 50.6105 18.0518 52.3569 18.1166C53.2875 18.138 54.1111 18.0666 54.8271 17.7218C56.1143 16.9855 56.9826 15.6484 56.9853 14.1647C56.9787 12.6814 55.9968 11.3386 54.7049 10.7142L53.4525 10.1847L52.3715 9.69986C51.9025 9.44188 51.7068 9.07459 51.8309 8.58714C51.9478 8.24255 52.1711 8.00063 52.4824 7.89107C53.4557 7.62681 54.366 8.13369 55.0786 8.73C55.0977 8.73953 55.1265 8.77635 55.1265 8.77635L56.6187 6.7342L56.2902 6.39782C54.8736 5.13889 52.4291 4.84895 50.7464 5.74315C49.431 6.4794 48.7912 7.85116 48.9685 9.32163C49.1045 10.5842 50.1015 11.7367 51.2305 12.2396L53.0931 12.9871L53.5719 13.2454C53.9469 13.486 54.3042 13.8885 54.2464 14.3647C54.2162 14.8314 53.7788 15.2669 53.3532 15.3982C52.0009 15.6308 50.9146 14.861 49.9977 13.9356L49.9688 13.9072L48.411 16.0265ZM57.6589 17.8751V5.29195L63.4286 11.5544L69.2068 5.28268V17.3225L74.7761 5.35085L80.622 17.8758H77.9096L76.7695 15.4262H72.8013L71.6612 17.8758H68.9494L68.9497 17.8751H66.6107V11.948L63.4286 15.3675L60.2367 11.948V17.8751H57.6589ZM75.6724 12.9781L74.7812 10.9613L73.8998 12.9781H75.6724ZM29.0493 7.82763V11.6217H30.7746C30.7746 11.6217 32.519 11.574 32.5091 9.71977C32.5091 8.0699 31.0055 7.86041 30.7982 7.83151L30.7981 7.83151C30.7834 7.82946 30.7752 7.82831 30.7746 7.82763H29.0493ZM35.2701 10.0755C35.2701 12.9188 32.7981 13.9845 31.3985 13.9845H29.0505V17.8648H26.4438V5.48402H31.3985C32.7981 5.48402 35.2701 6.88668 35.2701 10.0755ZM47.9008 17.8776H45.3229V5.51555H47.9008V17.8776ZM38.3195 7.8345V11.6286H40.0448C40.0448 11.6286 41.7885 11.5809 41.7787 9.72665C41.7787 8.07676 40.2756 7.86728 40.0683 7.83838C40.0536 7.83633 40.0454 7.83518 40.0448 7.8345H38.3195ZM44.6225 17.8686C44.6225 17.8686 41.451 17.8788 41.5659 17.8686C41.451 17.8788 38.3169 11.77 38.3169 11.7502V17.8788H35.6622V5.52633H40.5879C41.9967 5.52633 44.4793 6.92899 44.4793 10.1076C44.4793 12.9317 42.0067 13.6328 42.0067 13.6328C42.0067 13.6525 44.6225 17.8788 44.6225 17.8686Z" fill="white"/>
</g>
</g>
<defs>
<clipPath id="clip0">
<rect width="90" height="24" fill="white"/>
</clipPath>
</defs>
</svg>
