<svg width="90" height="24" viewBox="0 0 90 24" fill="none" xmlns="http://www.w3.org/2000/svg">
<rect width="90" height="24" rx="12" fill="#D63330"/>
<mask id="mask0" mask-type="alpha" maskUnits="userSpaceOnUse" x="0" y="0" width="93" height="24">
<rect width="93" height="24" fill="white"/>
</mask>
<g mask="url(#mask0)">
<path fill-rule="evenodd" clip-rule="evenodd" d="M8 18.9993H12.3275V5.00769H8V18.9993Z" fill="white"/>
<path fill-rule="evenodd" clip-rule="evenodd" d="M19.3401 13.6817C17.0886 11.7022 13.3271 12.4676 13.3271 12.4676C13.3271 13.2595 13.2213 15.7931 15.2875 17.6404C17.539 19.6201 21.3003 18.8284 21.3003 18.8284C21.3003 18.8284 21.6181 15.6348 19.3401 13.6817Z" fill="white"/>
<path fill-rule="evenodd" clip-rule="evenodd" d="M15.2873 6.36323C13.2213 8.20423 13.3271 10.7024 13.3271 11.5177C13.3271 11.5177 17.0884 12.2803 19.3399 10.3078C21.6182 8.3357 21.3003 5.15352 21.3003 5.15352C21.3003 5.15352 17.539 4.36469 15.2873 6.36323Z" fill="white"/>
<path fill-rule="evenodd" clip-rule="evenodd" d="M50.5168 14.6036L48.8413 11.3239H46.9561L49.6006 16.3512L48.2653 18.986H50.1503L53.9467 11.3239H52.1139L50.5168 14.6036Z" fill="white"/>
<path fill-rule="evenodd" clip-rule="evenodd" d="M57.7398 12.9974C58.4028 12.9974 58.9598 13.2588 59.3577 13.6511L60.6045 12.3961C59.9147 11.7159 58.9864 11.3239 57.7664 11.3239C57.1562 11.3239 56.5727 11.4285 55.9892 11.7159C54.716 12.3438 53.9468 13.6253 53.9468 15.1418C53.9468 16.7109 54.7955 18.0708 56.1482 18.6723C56.6522 18.8815 57.2358 18.986 57.8193 18.986C58.9334 18.986 59.7292 18.6459 60.5513 17.8615L59.517 16.6061C58.9864 17.0768 58.509 17.3386 57.7664 17.3386C56.5727 17.3386 55.724 16.3708 55.724 15.1418C55.724 13.9652 56.5461 12.9974 57.7398 12.9974Z" fill="white"/>
<path fill-rule="evenodd" clip-rule="evenodd" d="M61.9355 18.986H67.2617V17.3728H63.5937V15.8941H66.3572V14.3081H63.5937V12.9368H67.2617V11.3239H61.9355V18.986Z" fill="white"/>
<path fill-rule="evenodd" clip-rule="evenodd" d="M80.1241 17.3714H78.6661V15.3284H80.1241C80.7605 15.3284 81.1582 15.8389 81.1582 16.3499C81.1582 16.8607 80.7866 17.3714 80.1241 17.3714ZM82.1933 14.5501C81.6898 14.0123 81.027 13.7435 80.2316 13.7435H78.6675V11.3239H76.9175V18.986H80.2316C81.9816 18.986 82.9094 17.6686 82.9094 16.3781C82.9094 15.6791 82.6442 15.034 82.1933 14.5501Z" fill="white"/>
<path fill-rule="evenodd" clip-rule="evenodd" d="M70.1536 12.8456C69.8612 17.0637 69.1967 17.3037 68.3195 17.1973L68.2666 18.9322C70.313 19.2259 71.2699 18.3982 71.722 14.3941L71.8814 12.9257H73.5294V18.9322H75.2572V11.3239H70.2601L70.1536 12.8456Z" fill="white"/>
<path fill-rule="evenodd" clip-rule="evenodd" d="M29.7373 11.3239L27.34 14.4694V11.3239H25.6567V18.986H27.34V15.7868L29.6352 18.986H31.8542L28.8956 15.0339L31.9816 11.3239H29.7373Z" fill="white"/>
<path fill-rule="evenodd" clip-rule="evenodd" d="M35.3814 15.7548L36.2132 13.5772L37.0777 15.7548H35.3814ZM35.4068 11.3239L32.2969 18.986H34.1465L34.7628 17.373H37.7155L38.3559 18.986H40.2861L37.0153 11.3239H35.4068Z" fill="white"/>
<path fill-rule="evenodd" clip-rule="evenodd" d="M43.8172 15.3367H42.3717V13.0245H43.8172C44.4741 13.0245 44.842 13.6698 44.842 14.1807C44.842 14.7184 44.4478 15.3367 43.8172 15.3367ZM43.9411 11.3239H40.6299V18.986H42.3644L42.3907 16.9428H43.7835C44.8083 16.9428 45.4128 16.6203 45.9122 16.1092C46.3589 15.6253 46.6218 14.792 46.6218 14.1199C46.6218 12.8025 45.7021 11.3239 43.9411 11.3239Z" fill="white"/>
<path fill-rule="evenodd" clip-rule="evenodd" d="M58.5959 7.36838H57.3479V6.81402H58.4298V6.15891H57.3479V5.62983H58.5681V5H56.5986V7.99821H58.5959V7.36838Z" fill="white"/>
<path fill-rule="evenodd" clip-rule="evenodd" d="M51.0281 5.6434H51.361C51.6384 5.6434 51.8048 5.71825 51.8048 5.99311C51.8048 6.26797 51.5829 6.34299 51.361 6.34299H51.0281V5.6434ZM51.0287 6.99887H51.3893C52.1661 6.99887 52.61 6.524 52.61 5.99935C52.61 5.47469 52.3048 5 51.2784 5C51.0287 5 50.4462 5.02489 50.2798 5.02489V7.99821H51.0287V6.99887Z" fill="white"/>
<path fill-rule="evenodd" clip-rule="evenodd" d="M30.2871 6.13381V7.99821H30.9785V5H30.364L29.0325 6.86458V5H28.3154V7.99821H28.9301L30.2871 6.13381Z" fill="white"/>
<path fill-rule="evenodd" clip-rule="evenodd" d="M26.4497 5.62998H27.6541V5H25.6567V7.99821H26.4497V5.62998Z" fill="white"/>
<path fill-rule="evenodd" clip-rule="evenodd" d="M37.9568 7.36838H36.6983V6.81402H37.7652V6.15891H36.6983V5.62983H37.9021V5H35.9595V7.99821H37.9568V7.36838Z" fill="white"/>
<path fill-rule="evenodd" clip-rule="evenodd" d="M42.9335 6.10864L43.7308 7.26766H43.8275L44.6246 6.08337V7.99821H45.2772V5H44.6731L43.8275 6.25977L42.9335 5H42.2812V7.99821H42.9335V6.10864Z" fill="white"/>
<path fill-rule="evenodd" clip-rule="evenodd" d="M54.0086 6.56213L55.0428 7.99821H55.9478L54.7066 6.38571L55.8444 5H55.017L54.0086 6.31023V5H53.2847V7.99821H54.0086V6.56213Z" fill="white"/>
<path fill-rule="evenodd" clip-rule="evenodd" d="M33.0457 5.62998H34.211V7.99821H34.96V5H32.2969V7.99821H33.0457V5.62998Z" fill="white"/>
<path fill-rule="evenodd" clip-rule="evenodd" d="M59.6045 5.62998H60.5557V7.99821H61.3166V5.62998H62.2676V5H59.6045V5.62998Z" fill="white"/>
<path fill-rule="evenodd" clip-rule="evenodd" d="M47.7573 5.88043L48.0955 6.71205H47.4432L47.7573 5.88043ZM48.3481 7.36827L48.5897 7.99821H49.2904L48.0824 5H47.5025L46.2944 7.99821H46.9709L47.2126 7.36827H48.3481Z" fill="white"/>
<path fill-rule="evenodd" clip-rule="evenodd" d="M40.3933 6.34304H40.0369V5.6434H40.366C40.6401 5.6434 40.832 5.71843 40.832 5.99331C40.832 6.26818 40.5853 6.34304 40.3933 6.34304ZM41.6227 5.9994C41.6227 5.47472 41.2938 5 40.2794 5C40.0326 5 39.4844 5.02489 39.2925 5.02489V7.99821H40.0326V6.99881H40.389C41.1566 6.99881 41.6227 6.52409 41.6227 5.9994Z" fill="white"/>
</g>
</svg>
