<svg width="457" height="413" viewBox="0 0 457 413" fill="none" xmlns="http://www.w3.org/2000/svg">
  <ellipse rx="121.572" ry="191.799" transform="matrix(0.550044 0.835136 -0.839608 0.543193 228.369 206.366)" fill="#642373"/>
  <g clip-path="url(#clip0)">
    <path d="M224.152 189.481C266.667 152.205 282.932 100.974 260.481 75.0526C238.03 49.1314 185.366 58.3365 142.851 95.6127C100.337 132.889 84.0719 184.12 106.523 210.042C128.973 235.963 181.638 226.758 224.152 189.481Z" fill="#FFE14B"/>
    <path d="M150.594 137.332C180.734 110.905 194.543 77.2159 181.438 62.0845C168.332 46.9531 133.275 56.1095 103.135 82.5359C72.9949 108.962 59.1856 142.652 72.2912 157.783C85.3967 172.914 120.454 163.758 150.594 137.332Z" fill="#FFE14B"/>
    <path d="M146.859 114.961L150.736 115.44C152.278 115.631 153.335 115.056 153.495 113.75C153.613 112.777 153.101 112.008 152.244 111.635C152.998 111.46 153.527 110.947 153.633 110.071C153.784 108.834 152.923 108.037 151.464 107.856L147.782 107.402L146.859 114.961ZM151.164 108.807C151.984 108.908 152.466 109.349 152.383 110.03C152.287 110.822 151.683 111.142 150.905 111.046L148.64 110.766L148.913 108.529L151.164 108.807ZM150.891 111.975C151.766 112.083 152.365 112.609 152.263 113.443C152.166 114.235 151.535 114.552 150.632 114.44L148.228 114.143L148.528 111.683L150.891 111.975ZM159.256 116.634C161.312 116.888 162.794 115.378 163.069 113.127C163.342 110.89 162.269 109.05 160.212 108.796C158.962 108.642 157.941 109.15 157.268 110.04L157.347 108.583L156.221 108.444L154.96 118.783L156.238 118.941L156.74 114.828C157.199 115.802 158.047 116.485 159.256 116.634ZM159.053 115.523C157.594 115.342 156.84 114.008 157.037 112.396C157.235 110.77 158.275 109.643 159.748 109.825C161.29 110.015 161.945 111.352 161.749 112.964C161.55 114.59 160.595 115.713 159.053 115.523ZM168.004 117.715C169.949 117.955 171.168 117.217 171.75 115.794L170.595 115.439C170.183 116.39 169.365 116.853 168.128 116.7C166.53 116.503 165.864 115.377 165.937 113.848L171.884 114.583C171.932 114.419 171.984 114.228 172.008 114.034C172.274 111.852 171.086 110.14 168.905 109.87C166.529 109.576 164.995 111.052 164.719 113.317C164.435 115.638 165.587 117.416 168.004 117.715ZM168.795 110.886C170.171 111.056 170.891 112.09 170.827 113.422L166.089 112.837C166.436 111.498 167.35 110.708 168.795 110.886ZM174.756 118.408L175.486 112.432L177.484 117.32L178.651 117.464L181.726 113.189L180.995 119.179L182.148 119.321L183.071 111.761L181.612 111.581L178.2 116.308L175.985 110.886L174.526 110.705L173.603 118.265L174.756 118.408ZM184.833 114.377C184.684 115.6 185.379 116.49 186.563 116.848L184.088 119.561L185.491 119.734L187.795 117.155L189.24 117.333L188.895 120.155L190.16 120.311L191.084 112.737L187.847 112.337C186.221 112.136 185.013 112.904 184.833 114.377ZM187.469 116.127C186.552 116.014 185.974 115.435 186.084 114.531C186.192 113.642 186.88 113.205 187.811 113.32L189.701 113.554L189.358 116.361L187.469 116.127ZM124.789 132.558L125.97 132.704L126.233 130.55L131.943 131.256L131.68 133.41L132.861 133.555L133.258 130.304L132.244 130.178L133.033 123.716L127.711 123.059L127.57 123.986C126.991 127.569 126.767 128.599 125.936 129.399L125.186 129.306L124.789 132.558ZM127.793 128.627C128.174 127.701 128.397 126.571 128.765 124.247L128.768 124.219L131.686 124.58L131.021 130.027L127.214 129.557C127.444 129.289 127.636 128.988 127.793 128.627ZM137.999 132.145C140.361 132.437 141.887 131.031 142.173 128.682C142.458 126.348 141.318 124.599 138.956 124.307C136.607 124.017 135.08 125.436 134.795 127.771C134.509 130.12 135.651 131.855 137.999 132.145ZM138.128 131.089C136.558 130.895 135.903 129.671 136.115 127.934C136.327 126.197 137.243 125.167 138.827 125.363C140.425 125.56 141.067 126.768 140.853 128.519C140.641 130.256 139.726 131.286 138.128 131.089ZM150.988 128.502C150.875 126.767 149.841 125.652 147.965 125.42C145.631 125.132 144.105 126.537 143.817 128.9C143.53 131.248 144.674 132.969 147.022 133.259C148.801 133.479 150.153 132.687 150.724 131.008L149.527 130.649C149.128 131.841 148.277 132.342 147.151 132.203C145.595 132.011 144.928 130.772 145.137 129.063C145.35 127.312 146.28 126.284 147.836 126.476C149.031 126.624 149.672 127.38 149.726 128.557L150.988 128.502ZM153.853 133.962L155.132 134.12L155.925 127.616L158.565 127.943L158.694 126.886L152.136 126.076L152.007 127.132L154.647 127.459L153.853 133.962ZM159.416 129.275L160.59 129.589C160.815 128.559 161.656 128.141 162.781 128.28C163.948 128.424 164.606 129.042 164.437 130.431L164.416 130.598L161.774 130.525C159.919 130.466 158.921 131.132 158.755 132.494C158.59 133.842 159.475 134.798 161.059 134.994C162.282 135.145 163.348 134.726 164.032 133.866L164.02 133.963C163.911 134.852 164.288 135.35 165.205 135.463C165.358 135.482 165.597 135.484 165.757 135.447L165.907 134.563C165.865 134.558 165.753 134.558 165.683 134.549C165.336 134.506 165.162 134.315 165.217 133.857L165.628 130.494C165.87 128.507 164.836 127.504 162.933 127.269C161.168 127.051 159.875 127.709 159.416 129.275ZM159.972 132.574C160.064 131.824 160.688 131.449 161.868 131.482L164.315 131.545L164.259 132.003C164.1 133.31 162.823 134.182 161.35 134C160.363 133.878 159.876 133.366 159.972 132.574ZM167.522 135.651L171.398 136.13C172.94 136.32 173.998 135.746 174.157 134.439C174.276 133.467 173.763 132.698 172.906 132.324C173.661 132.149 174.189 131.636 174.296 130.761C174.447 129.524 173.585 128.726 172.126 128.546L168.444 128.091L167.522 135.651ZM171.827 129.496C172.647 129.598 173.129 130.038 173.046 130.719C172.949 131.511 172.346 131.832 171.568 131.735L169.303 131.456L169.576 129.218L171.827 129.496ZM171.553 132.665C172.428 132.773 173.027 133.298 172.925 134.132C172.829 134.924 172.198 135.241 171.295 135.13L168.891 134.833L169.191 132.373L171.553 132.665ZM175.961 136.694L177.24 136.851L177.713 132.974L180.949 137.31L182.561 137.509L179.227 133.048L183.386 129.937L181.844 129.746L177.716 132.946L178.162 129.292L176.884 129.134L175.961 136.694ZM183.899 137.674L185.15 137.829L189.848 132.498L189.137 138.321L190.388 138.476L191.31 130.916L190.06 130.761L185.362 136.091L186.072 130.269L184.822 130.114L183.899 137.674ZM199.452 139.737C201.814 140.028 203.339 138.623 203.626 136.274C203.911 133.94 202.77 132.191 200.408 131.899C198.06 131.609 196.533 133.028 196.248 135.363C195.961 137.711 197.104 139.446 199.452 139.737ZM199.581 138.68C198.011 138.486 197.356 137.263 197.568 135.526C197.78 133.789 198.695 132.759 200.279 132.955C201.877 133.152 202.52 134.36 202.306 136.111C202.094 137.848 201.179 138.878 199.581 138.68ZM206.866 140.511L208.145 140.669L208.938 134.166L211.578 134.492L211.707 133.436L205.149 132.625L205.02 133.682L207.66 134.008L206.866 140.511Z" fill="#004B46"/>
    <path d="M131.604 152.057C132.267 146.626 129.4 143.176 123.231 142.414C117.586 141.717 114.147 143.347 113.717 146.873C113.301 150.28 115.864 152.458 120.699 153.056C123.629 153.418 126.032 152.941 127.484 151.742C126.918 155.396 124.824 156.902 121.298 156.467C118.774 156.155 117.351 155.326 117.104 153.99L112.955 154.3C113.491 157.244 116.32 159.02 120.894 159.585C127.063 160.347 130.933 157.56 131.604 152.057ZM122.826 145.532C125.875 145.908 127.384 147.014 127.192 148.586C127.018 150.016 125.315 150.7 122.242 150.32C119.145 149.938 117.678 148.886 117.87 147.314C118.05 145.837 119.73 145.149 122.826 145.532ZM140.829 162.048C147.046 162.816 151.08 160.074 151.739 154.666C152.399 149.258 149.145 145.615 142.928 144.847C136.711 144.079 132.677 146.821 132.017 152.229C131.357 157.637 134.612 161.28 140.829 162.048ZM141.224 158.808C137.509 158.349 135.809 156.228 136.233 152.75C136.658 149.272 138.817 147.628 142.533 148.087C146.248 148.546 147.948 150.667 147.524 154.145C147.099 157.623 144.94 159.267 141.224 158.808ZM160.213 164.176L161.292 155.338L165.09 162.651L168.52 163.075L173.922 156.85L172.837 165.736L176.458 166.183L178.051 153.128L173.692 152.59L167.163 159.932L162.521 151.21L158.162 150.671L156.569 163.726L160.213 164.176ZM178.682 166.458L182.517 166.932L191.585 159.395L190.544 167.923L194.379 168.397L195.972 155.342L192.137 154.868L183.067 162.429L184.11 153.877L180.275 153.403L178.682 166.458ZM196.585 168.67L200.491 169.152L201.148 163.768L209.175 164.76L208.518 170.144L212.401 170.624L213.994 157.568L210.112 157.089L209.545 161.734L201.518 160.743L202.085 156.097L198.178 155.615L196.585 168.67Z" fill="#642373"/>
  </g>
  <g clip-path="url(#clip1)">
    <path d="M379.412 250.444C390.901 235.843 371.538 201.291 336.164 173.27C300.791 145.25 262.801 134.372 251.312 148.974C239.823 163.575 259.186 198.127 294.559 226.147C329.933 254.168 367.923 265.046 379.412 250.444Z" fill="white"/>
    <path d="M223.075 339.724C272.822 339.724 313.15 305.915 313.15 264.21C313.15 222.504 272.822 188.695 223.075 188.695C173.328 188.695 133 222.504 133 264.21C133 305.915 173.328 339.724 223.075 339.724Z" fill="white"/>
    <path d="M311.863 345.973C355.865 345.973 391.536 317.993 391.536 283.478C391.536 248.963 355.865 220.983 311.863 220.983C267.86 220.983 232.189 248.963 232.189 283.478C232.189 317.993 267.86 345.973 311.863 345.973Z" fill="white"/>
    <path d="M180.285 263.688C159.917 308.476 219.732 339.661 248.798 310.559L180.285 263.688Z" fill="white"/>
    <path d="M180.285 263.688C159.917 308.476 219.732 339.661 248.798 310.559" stroke="black" stroke-width="1.76" stroke-miterlimit="10"/>
    <path d="M391.535 296.228C415.93 314.726 408.663 338.682 349.492 312.643" stroke="black" stroke-width="1.76" stroke-miterlimit="10"/>
    <path d="M345.631 266.24H379.224C385.949 266.24 391.4 260.77 391.4 254.023C391.4 247.275 385.949 241.805 379.224 241.805H345.631C338.906 241.805 333.454 247.275 333.454 254.023C333.454 260.77 338.906 266.24 345.631 266.24Z" stroke="black" stroke-width="2" stroke-miterlimit="10"/>
    <path d="M292.865 266.24C292.803 268.952 293.283 271.649 294.275 274.173C295.267 276.697 296.752 278.996 298.642 280.936C300.532 282.876 302.79 284.417 305.282 285.469C307.774 286.521 310.45 287.064 313.154 287.064C315.858 287.064 318.534 286.521 321.026 285.469C323.518 284.417 325.776 282.876 327.666 280.936C329.556 278.996 331.041 276.697 332.033 274.173C333.025 271.649 333.505 268.952 333.443 266.24" stroke="black" stroke-width="2" stroke-miterlimit="10"/>
    <path d="M247.096 266.24H280.688C287.414 266.24 292.865 260.77 292.865 254.023C292.865 247.275 287.414 241.805 280.688 241.805H247.096C240.371 241.805 234.919 247.275 234.919 254.023C234.919 260.77 240.371 266.24 247.096 266.24Z" stroke="black" stroke-width="2" stroke-miterlimit="10"/>
    <path d="M362.418 241.451H377.947C384.85 241.451 390.446 247.047 390.446 253.95C390.446 260.853 384.85 266.449 377.947 266.449H362.418V241.451Z" fill="black"/>
    <path d="M264.838 241.451H280.367C287.27 241.451 292.866 247.047 292.866 253.95C292.866 260.853 287.27 266.449 280.367 266.449H264.838V241.451Z" fill="black"/>
  </g>
  <defs>
    <clipPath id="clip0">
      <rect x="52.999" y="53.7054" width="227" height="177.14" fill="white"/>
    </clipPath>
    <clipPath id="clip1">
      <rect x="133" y="141" width="273" height="209" fill="white"/>
    </clipPath>
  </defs>
</svg>
