<svg width="75" height="24" viewBox="0 0 75 24" fill="none" xmlns="http://www.w3.org/2000/svg">
  <rect width="75" height="24" rx="12" fill="#DA2100"/>
  <g clip-path="url(#clip0)">
    <path d="M23.5386 7.93016C23.3914 8.06117 23.3914 8.25767 23.5386 8.35593C23.6857 8.48693 23.9065 8.48693 24.0169 8.35593C24.164 8.22492 24.164 8.02842 24.0169 7.93016C23.8697 7.79916 23.649 7.79916 23.5386 7.93016Z" fill="#DA2100"/>
    <path d="M26.9231 7.73364H25.4515L25.0836 8.12665C25.01 8.19215 25.0468 8.2249 25.1204 8.25765L25.5987 8.45416L26.9599 7.89739C27.0702 7.86464 27.0334 7.73364 26.9231 7.73364ZM21.4583 14L19.6388 14.1528C19.1605 14.4149 19.0134 14.4804 18.388 14.7096C18.3512 14.7096 18.3144 14.7751 18.3512 14.8079L19.9699 18.8363H20.8896L19.4181 15.1354C20.3746 15.1354 22.6923 14.9061 23.9431 13.1048C23.5385 13.6288 22.6356 14 21.4583 14ZM24.0167 8.35591C23.8696 8.48691 23.6488 8.48691 23.5385 8.35591C23.3913 8.2249 23.3913 8.0284 23.5385 7.93014C23.6856 7.79914 23.9064 7.79914 24.0167 7.93014C23.73 7.58993 23.1545 7.66814 22.897 7.93015C22.6394 8.19216 22.5634 8.58516 22.8577 8.84717C23.1521 9.10918 23.7592 9.10918 24.0167 8.84717C24.4048 8.68746 24.311 8.19215 24.0167 7.93014C24.1271 8.06115 24.1271 8.2249 24.0167 8.35591ZM20.4482 15.6922L21.699 18.8363H22.6187L21.2943 15.5284C21.0736 15.5939 20.7793 15.6266 20.4482 15.6922ZM21.699 11.762C21.8094 11.631 22.0027 11.3512 22.1131 11.1875C22.0763 11.1547 21.7857 11.0432 21.7857 11.1875C19.9095 12.956 18.4412 13.2358 17.0432 13.2358H15.0541C14.9805 13.2358 14.5619 13.3013 14.5987 13.2358C16.2542 11.2053 18.0569 9.60045 19.4181 8.58516L15.8495 11.238C15.5552 11.4345 15.2241 11.5655 14.7826 11.5655H10.2943C10.1839 11.5655 10.2207 11.6638 10.2207 11.7293C10.515 12.5808 11.398 13.3668 12.8696 13.3668L11.8027 14.3166C11.7659 14.3494 11.7659 14.4476 11.8762 14.4476H15.8863C18.7558 14.4476 20.5585 13.3341 21.699 11.762Z" fill="white"/>
    <path d="M61.7258 18.8362H65V9.82969H61.7258V13.1376H58.6355V9.82969H55.3612V18.8362H58.6355V15.4301H61.7258V18.8362ZM22.9866 8.84716C22.6923 8.58515 22.6923 8.19214 22.9866 7.93013C23.2809 7.66812 23.7592 7.66812 24.0167 7.93013C24.2742 8.19214 24.311 8.58515 24.0167 8.84716C23.7224 9.10917 23.2441 9.10917 22.9866 8.84716ZM23.9064 13.1048C25.1572 11.3035 25.5987 8.45415 25.5987 8.45415L25.1204 8.25764C25.0468 8.22489 25.0468 8.19214 25.0836 8.12664L25.4515 7.73362C25.2308 7.34061 24.4214 6.68559 23.2441 6.68559C22.5452 6.68559 21.9197 6.84934 21.3679 7.17686C21.3679 7.17686 20.5585 7.66812 19.4181 8.5524C18.0569 9.60044 16.2542 11.1725 14.5987 13.2031C14.5619 13.2686 14.5987 13.3341 14.6722 13.3341H16.806C18.204 13.3341 20.0067 13.1048 21.8829 11.3362C21.9197 11.3035 21.9565 11.3035 21.9933 11.3035C22.0301 11.3362 22.0301 11.369 22.0301 11.4017C21.7358 12.0568 21 13.3341 19.6388 14.1201H21.4415C22.6555 14.1201 23.5385 13.6288 23.9064 13.1048ZM22.0669 15.2664L23.4649 18.8035H27.4381C26.6288 16.6092 25.7458 14.5786 24.8997 12.7118C24.2375 13.9891 23.612 14.6114 22.0669 15.2664ZM10 18.8362H14.01L15.3712 15.0699H11.4716C10.9933 16.1834 10.5151 17.4279 10 18.8362ZM15.408 10.7467L17.4314 9.27293C17.8729 8.22489 18.3144 7.17686 18.7559 6.29258C18.9766 6.75109 19.1973 7.24236 19.4181 7.73362C20.5217 6.91485 21.2207 6.42358 22.1405 6.19432C21.5886 5.11354 21.1839 4.32751 21 4H16.5117C16.1438 4.72052 14.709 7.37336 13.0167 10.9432H14.6355C14.9666 10.9432 15.2241 10.9105 15.408 10.7467ZM40.204 17.821L40.4247 18.8035H43.0736V9.82969H39.7993V16.0852C39.505 16.3799 38.9532 16.7074 38.4381 16.7074C37.5184 16.7074 37.0401 16.2489 37.0401 15.3974V9.82969H33.7659V16.0852C33.4716 16.3799 32.8462 16.7074 32.2943 16.7074C31.4482 16.7074 30.9699 16.2489 30.9699 15.3974V9.82969H27.6957V15.7904C27.6957 17.952 28.7625 19.0328 30.9699 19.0328C32.5518 19.0328 33.5084 18.5087 34.2441 17.821C34.7592 18.6397 35.6789 19.0328 37.0401 19.0328C38.6221 19 39.505 18.5087 40.204 17.821ZM50.6154 16.0524C50.3211 16.3472 49.8428 16.6747 49.0334 16.6747C48.1505 16.6747 47.6722 15.9541 47.6722 14.5459C47.6722 12.81 48.1873 11.9585 49.2542 11.9585C49.8796 11.9585 50.1739 11.9913 50.6154 12.0895V16.0524ZM47.893 19H48.0033C49.4749 19 50.4682 18.5415 51.0201 17.821L51.204 18.8035H53.8896V10.19C52.8227 9.8952 51.5719 9.63319 49.291 9.63319C46.0167 9.63319 44.2508 11.4017 44.2508 14.6769C44.2508 17.69 45.5017 19 47.893 19Z" fill="white"/>
  </g>
  <defs>
    <clipPath id="clip0">
      <rect x="10" y="4" width="55" height="15" fill="white"/>
    </clipPath>
  </defs>
</svg>
