<svg width="61" height="24" viewBox="0 0 61 24" fill="none" xmlns="http://www.w3.org/2000/svg">
<rect width="61" height="24" rx="12" fill="#F2AA18"/>
<mask id="mask0" mask-type="alpha" maskUnits="userSpaceOnUse" x="0" y="0" width="61" height="24">
<rect width="61" height="24" fill="white"/>
</mask>
<g mask="url(#mask0)">
<path fill-rule="evenodd" clip-rule="evenodd" d="M20.0755 3.32502H17.8711V3.3457C18.0427 3.45441 18.1399 3.59644 18.1631 3.77094C18.1857 3.94487 18.192 4.12485 18.1828 4.30959V6.89906C18.192 7.08769 18.1857 7.26821 18.1631 7.44213C18.1399 7.61627 18.0427 7.75965 17.8711 7.87089V7.8914H20.0381C20.2974 7.89738 20.5324 7.88289 20.7428 7.84747C20.9525 7.81148 21.157 7.71477 21.3533 7.55878C21.5275 7.41699 21.6591 7.25563 21.7468 7.07569C21.8339 6.89558 21.8781 6.69843 21.8781 6.48253C21.8749 6.17452 21.7759 5.91117 21.5849 5.6947C21.3933 5.47718 21.1373 5.34333 20.8146 5.29592C21.0409 5.228 21.2259 5.12142 21.3728 4.97746C21.5175 4.83411 21.5924 4.64548 21.5978 4.41408C21.5961 4.23413 21.5514 4.07298 21.4638 3.93152C21.3757 3.7903 21.2554 3.66433 21.1026 3.55426C20.9479 3.44437 20.788 3.37763 20.6195 3.35364C20.4512 3.32965 20.2695 3.32035 20.0755 3.32502ZM19.5473 5.06724V4.0041C19.584 3.99075 19.6196 3.98088 19.6545 3.97352C19.6886 3.96618 19.7253 3.96267 19.7621 3.96267C19.921 3.96811 20.038 4.02343 20.1146 4.12872C20.1904 4.2347 20.2284 4.35682 20.2284 4.49804C20.2284 4.65399 20.1822 4.79001 20.0913 4.90804C19.9999 5.02662 19.8657 5.08873 19.6874 5.09589C19.6625 5.09454 19.6394 5.0918 19.6173 5.0866C19.5957 5.08116 19.5718 5.0746 19.5473 5.06724ZM19.5473 7.15743V5.69845H19.7242C20.0051 5.6971 20.2123 5.7584 20.3465 5.88245C20.4811 6.00623 20.5474 6.19956 20.5457 6.46287C20.548 6.67143 20.4957 6.85077 20.3898 7.00284C20.2835 7.15338 20.111 7.23347 19.8731 7.24006C19.8073 7.24141 19.7504 7.2362 19.7014 7.22478C19.6522 7.21414 19.6007 7.19072 19.5473 7.15743V5.07448V7.15743Z" fill="white"/>
<path fill-rule="evenodd" clip-rule="evenodd" d="M23.4818 6.51072H24.9462L25.1909 7.18457C25.2128 7.23722 25.2273 7.2805 25.2371 7.31457C25.2461 7.3492 25.2499 7.39313 25.2499 7.44849C25.2476 7.55777 25.2191 7.64252 25.162 7.70504C25.1052 7.76657 25.0334 7.82304 24.9462 7.8718V7.89231H27.179V7.88515V7.8718C26.979 7.69845 26.842 7.54655 26.7694 7.41442C26.6964 7.28327 26.6208 7.11181 26.5434 6.89997L25.1467 3.32593H23.3339V3.34661C23.4097 3.39132 23.4762 3.44586 23.5296 3.51124C23.584 3.57667 23.612 3.65598 23.6141 3.74921C23.611 3.8272 23.5886 3.92044 23.5499 4.02918C23.5105 4.13792 23.4777 4.22845 23.4521 4.30452L22.4318 7.07312C22.3706 7.24725 22.3032 7.39391 22.2327 7.51522C22.1617 7.63515 22.0584 7.75515 21.9229 7.8718V7.89231H23.4379V7.8718C23.3686 7.82243 23.3073 7.7685 23.2545 7.71179C23.202 7.65452 23.1744 7.57791 23.171 7.4839C23.1733 7.40726 23.1896 7.32308 23.2183 7.23063C23.2476 7.13793 23.2763 7.05589 23.3042 6.98317L23.4818 6.51072ZM24.2005 4.4932L24.7104 5.86108H23.7047L24.1932 4.4932H24.2005Z" fill="white"/>
<path fill-rule="evenodd" clip-rule="evenodd" d="M29.8245 3.32502H27.6211V3.3457C27.7927 3.45441 27.8886 3.59644 27.9131 3.77094C27.9355 3.94487 27.9411 4.12485 27.9326 4.30959V6.89906C27.9411 7.08769 27.9355 7.26821 27.9131 7.44213C27.8886 7.61627 27.7927 7.75965 27.6211 7.87089V7.8914H29.7872C30.0472 7.89738 30.2828 7.88289 30.4924 7.84747C30.7036 7.81148 30.9068 7.71477 31.1033 7.55878C31.2775 7.41699 31.4089 7.25563 31.4958 7.07569C31.5835 6.89558 31.6278 6.69843 31.6278 6.48253C31.6237 6.17452 31.5255 5.91117 31.3338 5.6947C31.1435 5.47718 30.8863 5.34333 30.5637 5.29592C30.7906 5.228 30.9756 5.12142 31.1218 4.97746C31.267 4.83411 31.3415 4.64548 31.3468 4.41408C31.3451 4.23413 31.3013 4.07298 31.2132 3.93152C31.126 3.7903 31.0043 3.66433 30.8521 3.55426C30.6975 3.44437 30.537 3.37763 30.3687 3.35364C30.2008 3.32965 30.0191 3.32035 29.8245 3.32502ZM29.3064 5.06724V4.0041C29.3443 3.99075 29.3795 3.98088 29.4151 3.97352C29.4494 3.96618 29.485 3.96267 29.522 3.96267C29.6804 3.96811 29.7977 4.02343 29.8749 4.12872C29.9502 4.2347 29.9884 4.35682 29.9884 4.49804C29.9884 4.65399 29.9433 4.79001 29.851 4.90804C29.7606 5.02662 29.626 5.08873 29.4479 5.09589C29.4228 5.09454 29.3987 5.0918 29.3768 5.0866C29.3562 5.08116 29.332 5.0746 29.3064 5.06724ZM29.3064 7.15743V5.69845H29.485C29.7657 5.6971 29.9726 5.7584 30.1062 5.88245C30.2401 6.00623 30.3075 6.19956 30.3057 6.46287C30.3084 6.67143 30.2552 6.85077 30.1497 7.00284C30.0438 7.15338 29.8707 7.23347 29.6329 7.24006C29.5681 7.24141 29.5101 7.2362 29.4613 7.22478C29.4128 7.21414 29.3608 7.19072 29.3064 7.15743V5.07448V7.15743Z" fill="white"/>
<path fill-rule="evenodd" clip-rule="evenodd" d="M34.5058 6.87925V5.82483L35.8265 3.34661V3.32593H34.4962V3.34661C34.5747 3.38726 34.6323 3.43521 34.6701 3.49131C34.7084 3.54784 34.7266 3.62252 34.7266 3.71457C34.7231 3.79064 34.703 3.87326 34.667 3.96244C34.63 4.05104 34.5929 4.12846 34.5565 4.19304L34.1424 4.98553L33.2845 3.34661V3.32593H31.5693V3.34661C31.6783 3.4099 31.7675 3.48725 31.8382 3.57724C31.9094 3.66855 31.9751 3.76915 32.035 3.8812L33.1369 5.82483V6.89321C33.146 7.0791 33.1401 7.26121 33.1173 7.43784C33.0953 7.61505 32.9976 7.75978 32.8264 7.8718V7.89231H34.83V7.8718C34.6779 7.73173 34.5833 7.58119 34.5491 7.4204C34.5127 7.25986 34.4981 7.0791 34.5058 6.87925Z" fill="white"/>
<path fill-rule="evenodd" clip-rule="evenodd" d="M38.1439 7.10854V4.3252C38.1345 4.13715 38.1412 3.9545 38.1636 3.77844C38.186 3.60336 38.2831 3.45863 38.4552 3.34661V3.32593H36.4668V3.34661C36.6384 3.45863 36.7347 3.60336 36.7584 3.77787C36.7809 3.95315 36.7875 4.13309 36.777 4.31902V6.90734C36.7875 7.09265 36.7809 7.27124 36.7584 7.4446C36.7347 7.61718 36.6384 7.76056 36.4668 7.8718V7.89231H39.6901L39.9698 6.92126C39.8101 7.0346 39.6453 7.11316 39.4756 7.1598C39.3062 7.20586 39.1214 7.2285 38.9209 7.22657C38.7863 7.2285 38.6538 7.22191 38.5211 7.20721C38.3891 7.19193 38.2631 7.15922 38.1439 7.10854Z" fill="white"/>
<path fill-rule="evenodd" clip-rule="evenodd" d="M42.5927 3.15637C42.1178 3.15833 41.6837 3.25488 41.2905 3.44891C40.8972 3.64089 40.5819 3.91673 40.3471 4.27544C40.1103 4.63397 39.9883 5.06385 39.9829 5.56458C39.9883 6.06102 40.1005 6.48897 40.322 6.84963C40.5424 7.21009 40.8432 7.48753 41.2218 7.68352C41.6019 7.87932 42.0306 7.97799 42.5103 7.98012C42.9865 7.97877 43.4212 7.8828 43.8132 7.69282C44.2063 7.50223 44.5217 7.22692 44.7572 6.86687C44.9939 6.50563 45.1147 6.06974 45.1207 5.55856C45.1166 5.04198 45.0065 4.60532 44.7894 4.24817C44.573 3.89142 44.2749 3.62095 43.8976 3.43499C43.5176 3.25021 43.0848 3.15698 42.5927 3.15637ZM41.6669 6.67051C41.5673 6.48847 41.4901 6.27851 41.43 6.0419C41.3714 5.80529 41.3423 5.58202 41.3412 5.37133C41.3396 5.12464 41.3806 4.88688 41.4637 4.65625C41.5476 4.42623 41.6761 4.23618 41.8517 4.08685C42.0252 3.9363 42.248 3.85892 42.5213 3.85372C42.8365 3.86358 43.0866 3.97229 43.2713 4.18032C43.4573 4.38885 43.5892 4.64212 43.6685 4.93946C43.7476 5.23663 43.7872 5.52339 43.7845 5.79985C43.7872 5.97324 43.7713 6.14581 43.7344 6.31528C43.6987 6.48438 43.6302 6.6405 43.528 6.7831C43.4157 6.935 43.2792 7.0557 43.1209 7.14238C42.9625 7.22967 42.7903 7.27299 42.6037 7.27491C42.4045 7.27103 42.223 7.21223 42.0608 7.09963C41.8972 6.98646 41.7659 6.84366 41.6669 6.67051Z" fill="white"/>
<path fill-rule="evenodd" clip-rule="evenodd" d="M49.9616 8.03782V4.33838C49.9549 4.1391 49.9695 3.95913 50.0045 3.7978C50.038 3.6378 50.1305 3.48725 50.2783 3.34661V3.32593H48.8981V3.34661C49.0459 3.48725 49.1369 3.6378 49.1713 3.7978C49.2056 3.95913 49.2202 4.1391 49.2135 4.33838V6.1367L47.0048 3.34661V3.32593H45.5088V3.34661C45.6367 3.48185 45.7303 3.60181 45.7897 3.70781C45.8497 3.81328 45.8874 3.92645 45.9046 4.04449C45.9203 4.16387 45.9281 4.30972 45.9263 4.485V6.87925C45.9321 7.0791 45.9176 7.25986 45.882 7.41983C45.8477 7.58119 45.7541 7.73251 45.6024 7.8718V7.89305H46.9911V7.8718C46.8419 7.73251 46.7502 7.58119 46.7159 7.41983C46.6816 7.25986 46.6679 7.0791 46.6738 6.87925V5.04552H46.6962L48.0768 6.82394C48.1909 6.97117 48.2926 7.09846 48.3797 7.20721C48.468 7.31649 48.5676 7.41442 48.6752 7.50323C48.7834 7.59105 48.9253 7.67638 49.0987 7.76113C49.2135 7.81837 49.3521 7.87778 49.517 7.93911C49.6813 8.00045 49.8296 8.03316 49.9616 8.03782Z" fill="white"/>
<path fill-rule="evenodd" clip-rule="evenodd" d="M12.5611 5.2521C11.7903 5.27599 10.7353 5.13204 10 4.74329C10.1041 5.43303 10.0501 6.27591 10.0423 6.60863C10.343 6.51161 11.9326 6.05305 12.6076 6.11428C12.0647 6.62305 11.1222 7.33063 10.4497 7.59046C10.8859 7.77094 11.6047 8.47754 11.804 8.84273C12.2106 8.08116 13.0528 6.68331 13.3046 6.46085C13.3457 6.42449 13.3731 6.46305 13.3793 6.48998C13.4415 6.7562 13.599 9.43667 13.6279 9.47685C13.6388 9.49229 13.6584 9.48546 13.6593 9.48165C13.6722 9.43045 13.7373 6.86342 13.8146 6.38894C13.8345 6.26567 13.9331 6.28615 14.0002 6.33214C14.3424 6.56605 16.208 8.0888 16.28 8.08819C16.2963 8.08819 16.3279 8.07051 16.3149 8.04821C16.2834 7.99546 14.5157 6.30341 14.2789 5.94582C14.2562 5.91169 14.2884 5.84482 14.3013 5.84364C14.9464 5.77433 16.9713 5.54745 17.1393 5.5097C17.1836 5.49966 17.1754 5.48321 17.1357 5.48439C16.8837 5.49443 14.7313 5.43444 14.4561 5.41556C14.3794 5.41052 14.2691 5.26515 14.3693 5.1463C14.5766 4.89995 16.1053 3.24707 16.3573 2.92398C16.4066 2.86076 16.3923 2.83687 16.3183 2.87904C15.9082 3.11295 14.4897 4.54033 14.1173 4.83467C14.0406 4.89553 13.9228 4.82865 13.9384 4.73126C14.0831 3.84922 14.2789 3.16614 14.6253 2.01244C13.9995 2.18048 13.1944 2.17146 12.6015 2C12.8952 2.90472 13.2306 4.01767 13.2306 4.6925C12.7145 4.13253 11.8628 2.8961 11.6047 2.37445C11.3042 2.97802 10.7812 3.50406 10.3251 3.81086C10.9934 4.11769 12.1257 4.81419 12.5611 5.2521Z" fill="#E30016"/>
<path fill-rule="evenodd" clip-rule="evenodd" d="M46.9357 12.8972C46.4486 13.0818 45.7168 13.4871 45.5152 13.8188C45.2826 14.2048 45.1855 14.7545 45.9766 14.6908C46.5753 14.6436 48.1797 14.0429 48.588 13.8597C48.9953 13.6759 49.8092 13.242 49.7911 13.0559C49.7744 12.8689 49.265 12.7874 48.7298 12.7237C48.1939 12.6589 47.423 12.713 46.9357 12.8972ZM32.7979 14.5392C32.2842 14.9566 31.4813 15.5659 31.4173 16.1435C31.3534 16.7206 31.3853 17.3308 32.3156 16.9467C33.0189 16.6548 34.7546 15.4697 35.1727 15.0845C35.5889 14.6999 36.2631 14.0263 36.1672 13.8014C36.0706 13.5763 35.621 13.4789 34.9471 13.608C34.2738 13.7365 33.3108 14.1214 32.7979 14.5392ZM19.3253 12.0252C19.2647 11.1316 19.1322 10.012 19.0253 9.46231C18.919 8.9143 17.8859 8.48768 16.8554 8.87892C15.8223 9.27156 12.6975 10.8636 11.4667 12.311C10.8647 13.0169 10.6688 13.0364 10.7042 13.8909C10.7397 14.744 11.3957 16.4529 11.7872 16.5958C12.1784 16.7381 13.0522 16.8801 14.9539 16.7381C16.8554 16.5958 18.1714 16.5243 18.2063 16.7735C18.2428 17.0224 17.546 17.7144 15.7874 18.2475C14.0285 18.781 11.7359 18.6187 11.0242 17.8556C10.9523 18.9588 11.1457 20.5603 11.4667 20.8101C11.7872 21.0589 13.3373 21.5574 14.67 21.4502C16.0003 21.3445 17.8732 20.6669 18.669 20.1344C19.4684 19.6003 19.9299 18.5669 20.2869 18.5669C20.6424 18.5669 20.8907 19.137 20.9982 19.4203C21.1042 19.706 21.4597 20.3831 22.0296 20.3831C22.6003 20.3831 23.048 19.6706 23.3468 19.1731C23.6467 18.6741 24.0739 17.7144 24.3925 17.7491C24.7135 17.7842 25.5674 20.2053 26.0661 20.632C26.5294 20.1699 27.2916 19.0656 27.6475 18.4255C28.003 17.7842 28.5374 17.0939 28.9641 17.2002C29.3913 17.3077 29.3913 18.1048 29.2838 18.9244C29.1767 19.7421 28.8578 21.6282 28.8578 21.6282L29.8895 23.5299C29.8895 23.5299 30.7079 18.8521 30.9207 18.7095C31.134 18.5669 31.4839 19.7089 31.7548 19.9561C32.1815 20.3468 33.4278 19.5643 34.0679 19.1731C35.1713 18.4963 35.8264 17.6067 36.0397 17.6067C36.2537 17.6067 36.2297 18.4891 36.3366 19.1647C36.4424 19.8403 36.8941 20.4905 37.2145 20.9877C37.5366 21.4859 37.82 21.8077 38.4602 21.5222C39.1009 21.2349 40.2542 20.099 40.2542 20.099C40.2542 20.099 40.4325 17.9982 40.1834 17.8204C39.6356 18.1405 38.2107 19.1731 37.8895 18.9244C37.5697 18.6741 37.6593 18.0556 37.7835 17.7842C38.069 17.1624 38.1393 16.9513 38.4951 16.9159C38.8521 16.8801 41.1795 16.4529 41.1795 16.4529L41.0732 14.1758C40.8511 14.1519 40.6146 14.0735 40.1834 14.1758C39.931 14.236 39.5281 14.3179 39.5281 14.0347C39.5281 13.748 39.756 13.2355 39.9338 13.0931C40.1119 12.9506 41.5359 12.7737 41.8917 12.7737C42.247 12.7737 43.4584 12.5947 43.6356 12.8797C43.813 13.1644 43.7059 13.6417 43.4933 14.2464C43.2792 14.8526 42.3899 17.4146 42.3899 17.4146L43.2792 19.9198C43.2792 19.9198 43.9698 18.0475 44.1484 17.6781C44.325 17.3077 44.5048 17.0437 44.8594 17.4857C45.2169 17.9271 46.1772 19.2094 46.6038 19.7421C47.0305 20.2754 48.7542 22.3202 49.8567 22.5328C49.8931 22.5328 49.8931 19.5283 49.8931 19.5283C48.9314 19.5643 48.8401 19.3151 48.3989 18.8173C47.9547 18.3194 47.1019 17.6271 47.2088 17.3077C47.3154 16.9873 48.6122 16.7384 49.1814 16.4166C49.7504 16.0974 50.9258 15.4567 51.1736 14.9232C51.4222 14.3899 51.4943 11.7051 51.3165 11.3854C51.1381 11.065 50.4621 10.1396 49.6435 10.0684C48.8256 9.99724 47.7787 9.85407 47.3881 10.0331C46.9956 10.2107 46.3189 10.5317 46.0708 10.5317C45.8208 10.5317 45.429 10.0684 45.1098 10.1033C44.7877 10.1396 39.1015 10.5983 38.7811 10.744C38.2986 10.963 38.4115 11.4873 38.366 12.1623C38.3459 12.4763 37.7291 13.1212 37.5504 13.1212C37.3727 13.1212 37.0638 11.0301 36.5303 10.8506C35.9979 10.6743 35.0212 10.619 34.2828 10.9716C33.5459 11.324 32.5819 11.9658 32.2933 11.8051C32.0042 11.644 31.4903 9.87999 31.2653 9.87999C31.0415 9.87999 30.8804 10.0728 30.8485 10.4257C30.8165 10.7789 30.8485 11.0036 30.657 11.3557C30.4633 11.7095 29.1156 13.4426 28.5705 14.1156C28.0246 14.79 26.5813 16.5868 26.3243 16.4912C26.0667 16.3941 26.3887 14.9508 26.5813 14.4049C26.7731 13.8598 26.9981 12.929 26.9981 12.929L26.2603 10.4899C25.5867 11.549 24.067 14.4049 23.7141 15.0153C23.3609 15.6238 22.2494 17.0037 21.9918 16.9409C21.7354 16.8749 21.8959 15.7519 22.2808 14.79C22.666 13.827 23.1805 12.4478 23.1805 12.4478L22.2808 10.0728C22.2808 10.0728 21.5116 10.921 21.1575 11.7095C20.4624 13.2608 20.4194 14.7258 20.1636 14.9182C19.9066 15.1102 19.617 14.4363 18.847 14.245C18.0777 14.0514 16.6013 13.7956 15.8937 13.9235C15.1893 14.0514 13.6486 14.2752 13.5847 14.0839C13.5199 13.8909 14.7717 12.8969 15.6062 12.5124C16.4414 12.1266 17.3397 11.581 17.9168 11.6138C18.4946 11.644 18.9683 11.4755 19.3253 12.0252Z" fill="#00519E"/>
</g>
</svg>
