<svg width="88" height="24" viewBox="0 0 88 24" fill="none" xmlns="http://www.w3.org/2000/svg">
<rect width="88" height="24" rx="12" fill="#00AAFF"/>
<path fill-rule="evenodd" clip-rule="evenodd" d="M22.8158 7.77309C22.5841 7.9228 22.4092 8.03582 22.4569 8.04974C23.261 8.30916 24.3103 9.17338 24.2425 9.50011C23.7883 10.1089 22.9783 10.2663 22.8169 10.2976C22.7987 10.3012 22.7887 10.3031 22.7885 10.3039C22.787 10.3052 22.8037 10.3233 22.8327 10.3549C22.9665 10.5005 23.3633 10.9321 23.4565 11.3209C23.5508 11.6958 23.5017 12.1326 23.4639 12.2279C23.3831 12.4737 23.1634 12.4941 23.0039 12.5089C22.9948 12.5097 22.9858 12.5105 22.9771 12.5114C22.4196 12.5659 21.641 12.2628 21.641 12.2628C21.641 12.2628 21.696 13.6743 21.3325 13.9888C20.5255 14.1548 19.5165 13.4252 19.3637 13.2282C19.3456 13.3068 18.899 14.1622 18.7055 14.3003C17.3733 13.7284 16.8487 13.0194 16.6404 12.6018C16.635 12.6069 16.6295 12.6122 16.6237 12.6177C16.5816 12.6579 16.5295 12.7077 16.4503 12.7639C16.2087 12.9408 15.8402 13.0789 15.2449 13.1845H15.24C15.1142 13.2041 14.851 13.2041 14.7527 13.2041H14.7527C14.263 13.2041 13.6106 12.9683 13.5802 12.6843L13.5782 12.6804V12.6735C13.5743 12.6052 13.5743 12.5355 13.6327 12.4087C13.7013 12.254 13.7492 12.091 13.7752 11.9238L13.786 11.8452C13.7991 11.7237 13.8278 11.6045 13.8715 11.4904C13.339 11.5499 12.64 11.4703 12.0211 10.9505C11.8801 10.6503 12.1109 9.85091 12.4126 9.27115C12.3995 9.26327 12.3846 9.25441 12.3683 9.24463C12.0075 9.02895 10.895 8.36382 10.989 7.73825C11.0067 7.62033 11.4837 7.13491 12.0107 6.97769C11.0928 6.21319 11.0621 5.82985 11.052 5.70379C11.0518 5.7012 11.0516 5.69871 11.0514 5.69634C11.2552 5.49146 12.0304 5.22713 12.4676 5.25563C12.2686 4.95888 11.9955 4.30444 12.0211 4.20618C12.4554 4.08489 12.9841 4.1964 13.2888 4.26068C13.4087 4.28597 13.4939 4.30395 13.5252 4.29756C13.5313 4.23174 13.537 4.1686 13.5425 4.1083C13.5843 3.64877 13.6111 3.35393 13.6931 3.28791C14.2181 3.21872 14.8012 3.58407 15.1259 3.78747C15.154 3.80506 15.1801 3.82144 15.2041 3.83622C15.4532 3.41418 15.7214 3.09433 15.8481 3C16.1533 3.14476 16.3216 3.39587 16.4788 3.63036C16.5323 3.71022 16.5845 3.78816 16.6404 3.85931C17.9648 2.03014 18.6642 3.93448 18.8313 4.53389C20.2764 3.93448 20.3275 4.02145 20.5662 4.43906C20.7483 4.83751 20.7918 5.25172 20.8208 5.52822C20.8417 5.72769 20.8551 5.85549 20.9076 5.85405C22.3341 5.82605 23.6953 6.36993 23.6854 7.03616C23.6869 7.21018 23.1809 7.53719 22.8158 7.77309ZM19.9838 10.3754L20.4887 10.2575L20.363 9.77597L20.7461 9.52392L20.4485 9.05128L20.6744 8.68475L20.2323 8.27451L20.2854 7.82495L19.7421 7.51346L19.6114 7.03688L19.0195 6.8438L18.715 6.38294L18.1383 6.33872L17.6913 5.93339L17.1819 6.04442L16.6381 5.73637L16.2471 5.98448L15.6596 5.8027L15.4253 6.16578L14.8481 6.13434L14.7921 6.57554L14.2862 6.69345L14.4163 7.17494L14.0298 7.42748L14.326 7.89619L14.0951 8.26271L14.5387 8.68033L14.489 9.12252L15.0343 9.43794L15.164 9.91452L15.7554 10.1037L16.056 10.569L16.6381 10.6117L17.0846 11.0175L17.5906 10.904L18.1383 11.215L18.5249 10.9664L19.1168 11.1477L19.3506 10.7817L19.9278 10.8166L19.9838 10.3754Z" fill="#FFE100"/>
<path fill-rule="evenodd" clip-rule="evenodd" d="M17.6485 16.3149C18.1284 16.0137 19.4741 15.1691 21.1338 16.5888V16.5893C21.2831 16.7475 21.4472 17.0123 21.0488 17.2379C20.6534 17.4678 20.5242 17.6039 20.425 17.8854C20.3253 18.1615 19.8876 19.1334 18.4267 19.2439C16.9418 19.3633 16.7035 19.494 16.3891 19.7514C16.3891 19.7514 16.2212 19.9023 16.0753 19.9701C16.1819 21.0559 16.5493 21.6391 16.5493 21.6391C16.5493 21.6391 15.9795 21.8759 15.4391 21.0397C14.9514 20.287 15.1709 18.3217 15.1709 18.3217C15.1728 18.2979 15.1768 18.2745 15.1807 18.2515C15.1828 18.2389 15.1849 18.2264 15.1867 18.2141C15.0545 18.134 14.918 17.9994 14.918 17.9994C14.6684 17.7852 14.3658 17.5715 12.8745 17.4486C11.4151 17.3263 10.9784 16.2557 10.8787 15.9462C10.7755 15.6372 10.6459 15.4873 10.2499 15.2367C9.85206 14.9876 10.0117 14.6973 10.1664 14.5243C11.8221 12.9546 13.1661 13.8798 13.6468 14.2108C13.6918 14.2417 13.7293 14.2675 13.7587 14.2855C14.9022 15.1105 15.3856 15.902 15.5639 16.5603C15.5928 16.4712 15.623 16.3807 15.6554 16.2836C15.7567 15.98 15.8791 15.6133 16.0478 15.0314C16.5955 13.3629 16.6348 12.6603 16.6348 12.6603C16.6676 12.3102 16.6834 12.3161 16.7751 12.3501C16.7766 12.3506 16.7781 12.3512 16.7797 12.3517C17.1486 12.5537 16.8828 14.29 16.7841 14.909C16.7407 15.1873 16.6262 15.739 16.5043 16.3261C16.4217 16.7237 16.3358 17.1374 16.2663 17.4933C16.5547 17.1357 16.9555 16.7637 17.5386 16.382C17.5676 16.3657 17.6044 16.3426 17.6485 16.3149ZM10.7184 14.8336C13.0742 14.3855 14.3902 15.8044 14.9305 16.8234C12.9706 14.7904 10.7184 14.8336 10.7184 14.8336ZM16.3192 18.647C16.8596 17.7219 17.9353 16.498 20.5309 16.8341C20.5309 16.8341 17.5217 17.2114 16.3192 18.647Z" fill="#96DE16"/>
<path fill-rule="evenodd" clip-rule="evenodd" d="M46.26 13.452H40.6808V15.1603H46.6117L46.6088 18.0704H37.7134V6.43848H46.4349L46.4319 9.34903L40.6774 9.3451V10.5439H46.26V13.452ZM54.8303 10.5439H50.7345V6.43848H47.8324V10.5439H46.9807V13.452H47.8324V18.0704H50.7345V13.452H54.8303V18.0704H57.7329V6.43848H54.8303V10.5439ZM67.7449 6.43848H58.8466V9.34903H61.8405V18.0699H64.7525V9.34903H67.7449V6.43848ZM24.7363 18.0706H27.8231L30.7964 9.3458H33.1445L33.141 18.0706H36.2303V6.43869H28.6818L24.7363 18.0706ZM73.8099 6.43851H70.2079L68.4066 11.7437H66.4319V14.6474H67.4217L66.2614 18.0704H69.1783L70.3356 14.6474H73.6778L74.8385 18.0704H77.7554L73.8099 6.43851ZM71.3231 11.7449L72.0083 9.73152L72.6936 11.7449H71.3231Z" fill="white"/>
</svg>
