<svg width="65" height="24" viewBox="0 0 65 24" fill="none" xmlns="http://www.w3.org/2000/svg">
<rect width="65" height="24" rx="12" fill="#006C43"/>
<mask id="mask0" mask-type="alpha" maskUnits="userSpaceOnUse" x="0" y="0" width="64" height="24">
<rect width="64" height="24" fill="white"/>
</mask>
<g mask="url(#mask0)">
<path fill-rule="evenodd" clip-rule="evenodd" d="M9 17.9554V10.4193H10.1812C10.8685 10.4193 11.3696 10.4623 11.6846 10.5555C12.1357 10.6774 12.4936 10.8997 12.7585 11.2224C13.0234 11.5451 13.1594 11.9323 13.1594 12.3697C13.1594 12.6565 13.1021 12.9146 12.9804 13.1512C12.8587 13.3879 12.6654 13.603 12.3862 13.8109C12.8444 14.026 13.1809 14.2985 13.3885 14.6212C13.6032 14.9438 13.7035 15.3239 13.7035 15.7684C13.7035 16.1915 13.5961 16.5787 13.3742 16.93C13.1522 17.2814 12.873 17.5395 12.5294 17.7116C12.1858 17.8837 11.7061 17.9697 11.0976 17.9697H9V17.9554ZM10.4324 11.7899V13.3817H10.7474C11.0982 13.3817 11.3559 13.31 11.5277 13.1594C11.6996 13.016 11.7783 12.8153 11.7783 12.5571C11.7783 12.3205 11.6996 12.1341 11.5349 11.9978C11.3774 11.8616 11.1268 11.7899 10.7975 11.7899H10.4324ZM10.4324 16.5908V14.6691H10.7259C11.2915 14.6691 11.6924 14.7623 11.9358 14.9488C12.1792 15.1352 12.3009 15.3933 12.3009 15.716C12.3009 16.0028 12.2007 16.2179 11.9931 16.3685C11.7855 16.5191 11.3846 16.5908 10.7904 16.5908H10.4324Z" fill="white"/>
<path d="M14.3936 12.3851H15.7896V14.4717L17.7153 12.3851H19.4192L16.9422 15.1027L19.455 17.9637H17.6008L15.9399 15.9918L15.7896 16.1711V17.9637H14.3936V12.3851Z" fill="white"/>
<path d="M19.9292 12.3851H21.3538L22.8 15.8843L24.3964 12.3851H25.8282L22.3418 20.0001H20.8957L22.0411 17.5478L19.9292 12.3851Z" fill="white"/>
<path d="M31.897 13.5055L30.7372 14.1437C30.5153 13.9142 30.3005 13.7565 30.0929 13.6704C29.8781 13.5844 29.6276 13.5342 29.3412 13.5342C28.8186 13.5342 28.3962 13.692 28.0741 14.0003C27.7519 14.3158 27.5872 14.7101 27.5872 15.1977C27.5872 15.671 27.7447 16.0582 28.0526 16.3593C28.3604 16.6605 28.7685 16.8111 29.2768 16.8111C29.8996 16.8111 30.3864 16.596 30.7372 16.1729L31.8397 16.9258C31.2455 17.7002 30.4007 18.0946 29.3126 18.0946C28.3318 18.0946 27.5658 17.8078 27.0145 17.227C26.4633 16.6462 26.1841 15.965 26.1841 15.1906C26.1841 14.6528 26.3201 14.1509 26.585 13.6991C26.857 13.2474 27.2293 12.8889 27.7161 12.6307C28.1958 12.3726 28.7399 12.2435 29.3341 12.2435C29.8853 12.2435 30.3864 12.3511 30.8231 12.5734C31.2598 12.7885 31.6178 13.0968 31.897 13.5055Z" fill="white"/>
<path fill-rule="evenodd" clip-rule="evenodd" d="M33.0518 17.9555V10.4194H34.233C34.9203 10.4194 35.4214 10.4625 35.7364 10.5557C36.1874 10.6776 36.5454 10.8999 36.8102 11.2225C37.0751 11.5452 37.2112 11.9324 37.2112 12.3698C37.2112 12.6566 37.1539 12.9147 37.0322 13.1514C36.9105 13.388 36.7172 13.6031 36.4451 13.811C36.9033 14.0261 37.2398 14.2986 37.4474 14.6213C37.6622 14.944 37.7624 15.324 37.7624 15.7686C37.7624 16.1916 37.655 16.5788 37.4331 16.9302C37.2112 17.2815 36.9319 17.5396 36.5883 17.7117C36.2447 17.8838 35.765 17.9699 35.1565 17.9699H33.0518V17.9555ZM34.4834 11.7899V13.3817H34.7984C35.1492 13.3817 35.4069 13.31 35.5787 13.1594C35.7506 13.016 35.8293 12.8153 35.8293 12.5571C35.8293 12.3205 35.7506 12.1341 35.5859 11.9978C35.4284 11.8616 35.1778 11.7899 34.8485 11.7899H34.4834ZM34.4834 16.5909V14.6693H34.7769C35.3425 14.6693 35.7434 14.7625 35.9868 14.9489C36.2302 15.1353 36.3519 15.3935 36.3519 15.7161C36.3519 16.003 36.2517 16.2181 36.0441 16.3686C35.8365 16.5192 35.4356 16.5909 34.8414 16.5909H34.4834Z" fill="white"/>
<path d="M39.4887 17.9539H38.7441V12.3754H40.1044V15.6522L42.9536 12.3754H43.6266V17.9539H42.2664V14.7488L39.4887 17.9539Z" fill="white"/>
<path d="M50.1141 17.9539H48.6895L47.2935 14.4404L45.876 17.9539H44.4585L46.8353 12.3754H47.7373L50.1141 17.9539Z" fill="white"/>
<path d="M56.3846 17.9539H54.96L53.564 14.4404L52.1465 17.9539H50.729L53.1058 12.3754H54.0078L56.3846 17.9539Z" fill="white"/>
<path d="M24.0693 19.9998V19.2684H56.378V19.9998H24.0693Z" fill="white"/>
<path d="M9 19.9998V19.2684H19.7027V19.9998H9Z" fill="white"/>
<path d="M15.2905 8.00327C15.2905 8.00327 17.1877 8.5769 21.9484 8.56973C29.4368 8.55539 36.7461 4.61884 40.2898 4.16711C43.8335 3.71537 45.8524 4.13842 47.0121 4.85546C48.1719 5.56533 48.8234 6.69109 48.8234 6.69109C48.8234 6.69109 46.0528 5.01321 38.7005 6.56202C31.3554 8.11083 25.263 9.68831 18.9846 8.87806C16.708 8.58407 15.2905 8.00327 15.2905 8.00327Z" fill="#AEC90B"/>
<path d="M33.5405 8.89084C33.5405 8.89084 39.7044 6.88313 42.7757 6.73255C45.8469 6.58197 47.2644 6.99786 48.4384 7.45676C49.6197 7.91567 50.0779 8.53232 50.0779 8.53232C50.0779 8.53232 47.4935 7.60017 44.4222 7.60017C41.351 7.60017 33.5405 8.89084 33.5405 8.89084Z" fill="white"/>
<path d="M24.2676 6.5785C27.1527 6.04072 27.3388 5.89014 30.0879 4.94364C32.257 4.19792 34.011 3.48088 35.1994 3.2586C36.6169 2.9933 37.1968 2.98613 37.7337 3.00764C38.9364 3.05783 40.0317 3.67448 40.0317 3.67448C40.0317 3.67448 38.8433 3.35899 35.4142 4.53493C33.0946 5.33085 30.7179 6.0192 29.2861 6.27734C28.0762 6.49962 26.5012 6.7219 24.2676 6.5785Z" fill="white"/>
</g>
</svg>
