<svg width="83" height="24" viewBox="0 0 83 24" fill="none" xmlns="http://www.w3.org/2000/svg">
<rect width="83" height="24" rx="12" fill="#003F80"/>
<mask id="mask0" mask-type="alpha" maskUnits="userSpaceOnUse" x="0" y="0" width="83" height="24">
<rect width="83" height="24" rx="12" fill="white"/>
</mask>
<g mask="url(#mask0)">
<path fill-rule="evenodd" clip-rule="evenodd" d="M70.8454 15.1021C70.8285 15.237 70.7775 15.5921 70.3145 15.6381H66.2487C65.7857 15.5921 65.7008 15.237 65.6838 15.1021V8.83402C65.7008 8.69946 65.7654 8.41186 66.2276 8.36608H70.3161C70.7793 8.41186 70.8285 8.69946 70.8454 8.83402V15.1021ZM72.2543 6.00396H64.2765C63.0785 6.10083 62.0659 6.70789 61.9309 8.06542V15.8261C62.0659 17.1837 63.0785 17.9038 64.2765 17.9999H72.2543C73.4521 17.9038 74.4652 17.1837 74.6002 15.8261V8.06542C74.4652 6.70789 73.4521 6.10083 72.2543 6.00396ZM39.9713 8.36592H36.4053V6.00396H47.2913V8.36592H43.7249V17.9999H39.9713V8.36592ZM35.2787 8.36592V6.00396H25.5185V17.9999L35.4086 17.9974L35.4119 15.638H29.282L29.2828 13.0696H35.2787V10.7132H29.2828V8.36592H35.2787ZM57.0515 10.2249C57.0515 10.4849 56.9867 10.7125 56.5204 10.7125H52.1716V8.35791H56.5257C57.0553 8.35791 57.0515 8.70343 57.0515 8.91969V10.2249ZM58.0913 13.3368C59.2617 13.2432 60.4299 12.4472 60.4299 11.1395V8.17807C60.2939 6.82661 59.2782 6.09612 58.0746 6H48.4171L48.4178 18H52.1714V13.3368H53.6653L56.1054 18H60.4225L57.5169 13.3368H58.0913ZM17.7473 17.9999L20.2618 10.4648V17.9999H24.0165V6.00394H18.9486L16.5082 12.0024L14.0681 6.00394H9V17.9999H12.7546V10.4648L15.2877 17.9999H17.7473Z" fill="#FFE511"/>
</g>
</svg>
